<?xml version="1.0" ?><svg enable-background="new 0 0 80 80" id="Layer_1" version="1.1" viewBox="0 0 80 80" xml:space="preserve" xmlns="http://www.w3.org/2000/svg" xmlns:xlink="http://www.w3.org/1999/xlink"><g><g><path d="    M50.466,47.837l0.597-0.802c0.989-1.329,2.869-1.605,4.198-0.616l3.209,2.388c1.329,0.989,1.605,2.869,0.616,4.198l-0.597,0.802    c-0.989,1.329-2.869,1.605-4.198,0.616l-3.209-2.388C49.753,51.045,49.477,49.166,50.466,47.837z" fill="none" stroke="#000000" stroke-linecap="round" stroke-linejoin="round" stroke-miterlimit="10" stroke-width="4"/><line fill="none" stroke="#000000" stroke-linecap="round" stroke-linejoin="round" stroke-miterlimit="10" stroke-width="4" x1="56.25" x2="54.357" y1="43.415" y2="45.959"/><line fill="none" stroke="#000000" stroke-linecap="round" stroke-linejoin="round" stroke-miterlimit="10" stroke-width="4" x1="61.063" x2="59.17" y1="46.997" y2="49.541"/></g><g><path d="M43.551,46.279    c9.562-12.708,21.752-26.002,16.628-30.965c-5.192-5.288-23.938,1.975-35.168,12.259c-11.699,9.811-4.208,20.73-2.052,22.913    C25.411,52.906,34.548,59.21,43.551,46.279z" fill="none" stroke="#000000" stroke-linecap="round" stroke-miterlimit="10" stroke-width="4"/><path d="    M49.561,22.933C39.674,30.751,30.756,39.95,23.275,50.06c-2.924,3.951-2.45,9.466,1.025,12.942l0,0    c2.213,2.213,5.214,3.456,8.343,3.456h0.002c4.641,0,9.092-1.844,12.374-5.126l0,0c2.409-2.409,4.737-4.899,6.979-7.465    l0.609-0.697" fill="none" stroke="#000000" stroke-linecap="round" stroke-linejoin="round" stroke-miterlimit="10" stroke-width="4"/><path d="M38.699,24.926    c0.55,1.96,1.107,3.933,1.677,5.927c2.047,0.609,4.093,1.212,6.148,1.818" fill="none" stroke="#000000" stroke-linecap="round" stroke-miterlimit="10" stroke-width="4"/><path d="M30.89,29.931    c1.227,2.184,2.472,4.392,3.74,6.628c2.199,1.258,4.381,2.495,6.553,3.715" fill="none" stroke="#000000" stroke-linecap="round" stroke-miterlimit="10" stroke-width="4"/><path d="M25.619,37.479    c0.953,1.925,1.933,3.88,2.946,5.868c1.878,0.956,3.731,1.883,5.564,2.787" fill="none" stroke="#000000" stroke-linecap="round" stroke-miterlimit="10" stroke-width="4"/></g></g></svg>