<?xml version="1.0" encoding="utf-8"?>
<!-- Generator: Adobe Illustrator 28.2.0, SVG Export Plug-In . SVG Version: 6.00 Build 0)  -->
<svg version="1.1" id="Layer_1" xmlns="http://www.w3.org/2000/svg" xmlns:xlink="http://www.w3.org/1999/xlink" x="0px" y="0px"
	 viewBox="0 0 2000 2000" style="enable-background:new 0 0 2000 2000;" xml:space="preserve">
<style type="text/css">
	.st0{fill:#05F4C1;}
	.st1{fill:#0086FF;}
	.st2{fill:#06044B;}
	.st3{fill:#FFFFFF;}
</style>
<g>
	<g>
		<g>
			<g>
				<circle class="st0" cx="1240" cy="934.6" r="13"/>
				<path class="st0" d="M1227.9,918.6c-6.2-1.7-9.9-8-8.2-14.2c1.7-6.2,8-9.9,14.2-8.2c6.2,1.7,9.9,8,8.2,14.2
					C1240.5,916.6,1234.1,920.3,1227.9,918.6z"/>
				<path class="st0" d="M1216.3,891.2c-5.4-1.5-8.7-7.1-7.2-12.5s7.1-8.7,12.5-7.2c5.4,1.5,8.7,7.1,7.2,12.5
					S1221.7,892.7,1216.3,891.2z"/>
				<circle class="st0" cx="1204" cy="856.8" r="8.8"/>
				<path class="st0" d="M1184.5,841.3c-3.9-1.1-6.3-5.1-5.2-9s5.1-6.3,9-5.2c3.9,1.1,6.3,5.1,5.2,9
					C1192.5,840,1188.5,842.3,1184.5,841.3z"/>
				<path class="st0" d="M1164.9,819.4c-3.2-0.9-5.1-4.1-4.2-7.3c0.9-3.2,4.1-5.1,7.3-4.2c3.2,0.9,5.1,4.1,4.2,7.3
					C1171.3,818.3,1168.1,820.2,1164.9,819.4z"/>
				<circle class="st0" cx="1144.2" cy="795.5" r="4.5"/>
				<circle class="st0" cx="1120.1" cy="780" r="3.1"/>
				<path class="st0" d="M1093.9,769c-0.9-0.2-1.5-1.2-1.2-2.1s1.2-1.5,2.1-1.2c0.9,0.2,1.5,1.2,1.2,2.1S1094.8,769.3,1093.9,769z"
					/>
				<circle class="st0" cx="1067.3" cy="757.8" r="0.3"/>
			</g>
			<g>
				<circle class="st1" cx="817.5" cy="821.4" r="13"/>
				<path class="st1" d="M795.4,854.1c-6.2-1.7-9.9-8-8.2-14.2c1.7-6.2,8-9.9,14.2-8.2c6.2,1.7,9.9,8,8.2,14.2
					C808,852,801.6,855.7,795.4,854.1z"/>
				<path class="st1" d="M779.2,876.1c-5.4-1.5-8.7-7.1-7.2-12.5c1.5-5.4,7.1-8.7,12.5-7.2c5.4,1.5,8.7,7.1,7.2,12.5
					C790.3,874.3,784.7,877.6,779.2,876.1z"/>
				<path class="st1" d="M765.8,899.9c-4.7-1.3-7.5-6.1-6.2-10.8c1.3-4.7,6.1-7.5,10.8-6.2c4.7,1.3,7.5,6.1,6.2,10.8
					C775.3,898.4,770.5,901.2,765.8,899.9z"/>
				<circle class="st1" cx="757.3" cy="918" r="7.4"/>
				<circle class="st1" cx="749.5" cy="945.6" r="6"/>
				<path class="st1" d="M743.7,978.3c-2.4-0.7-3.9-3.1-3.2-5.6c0.7-2.4,3.1-3.9,5.6-3.2c2.4,0.7,3.9,3.1,3.2,5.6
					C748.7,977.5,746.2,979,743.7,978.3z"/>
				<path class="st1" d="M742.7,1005.6c-1.7-0.4-2.7-2.2-2.2-3.8c0.4-1.7,2.2-2.7,3.8-2.2c1.7,0.4,2.7,2.2,2.2,3.8
					C746.1,1005.1,744.4,1006.1,742.7,1005.6z"/>
				<path class="st1" d="M745,1032.9c-0.9-0.2-1.5-1.2-1.2-2.1s1.2-1.5,2.1-1.2c0.9,0.2,1.5,1.2,1.2,2.1
					C746.9,1032.6,746,1033.1,745,1032.9z"/>
				<circle class="st1" cx="750.7" cy="1059.4" r="0.3"/>
			</g>
			<g>
				<circle class="st2" cx="930.7" cy="1243.8" r="13"/>
				<path class="st2" d="M955.8,1260.9c-6.2-1.7-9.9-8-8.2-14.2c1.7-6.2,8-9.9,14.2-8.2c6.2,1.7,9.9,8,8.2,14.2
					C968.4,1258.9,962,1262.6,955.8,1260.9z"/>
				<path class="st2" d="M984.7,1262.2c-5.4-1.5-8.7-7.1-7.2-12.5c1.5-5.4,7.1-8.7,12.5-7.2c5.4,1.5,8.7,7.1,7.2,12.5
					C995.8,1260.4,990.2,1263.7,984.7,1262.2z"/>
				<circle class="st2" cx="1016.1" cy="1251.7" r="8.8"/>
				<path class="st2" d="M1042.6,1254.9c-3.9-1.1-6.3-5.1-5.2-9c1.1-3.9,5.1-6.3,9-5.2s6.3,5.1,5.2,9
					C1050.6,1253.7,1046.5,1256,1042.6,1254.9z"/>
				<path class="st2" d="M1070.7,1246.5c-3.2-0.9-5.1-4.1-4.2-7.3c0.9-3.2,4.1-5.1,7.3-4.2c3.2,0.9,5.1,4.1,4.2,7.3
					C1077.2,1245.4,1073.9,1247.3,1070.7,1246.5z"/>
				<path class="st2" d="M1097.9,1234.9c-2.4-0.7-3.9-3.1-3.2-5.6c0.7-2.4,3.1-3.9,5.6-3.2c2.4,0.7,3.9,3.1,3.2,5.6
					C1102.8,1234.1,1100.3,1235.5,1097.9,1234.9z"/>
				<path class="st2" d="M1123.7,1220.3c-1.7-0.4-2.7-2.2-2.2-3.8c0.4-1.7,2.2-2.7,3.8-2.2c1.7,0.4,2.7,2.2,2.2,3.8
					C1127.1,1219.8,1125.4,1220.8,1123.7,1220.3z"/>
				<path class="st2" d="M1147.9,1203c-0.9-0.2-1.5-1.2-1.2-2.1c0.2-0.9,1.2-1.5,2.1-1.2c0.9,0.2,1.5,1.2,1.2,2.1
					C1149.8,1202.7,1148.9,1203.2,1147.9,1203z"/>
				<circle class="st2" cx="1170.3" cy="1182.8" r="0.3"/>
			</g>
		</g>
	</g>
	<g>
		<g>
			<g>
				<circle class="st0" cx="1264.2" cy="966" r="14"/>
				<path class="st0" d="M1253.8,947.2c-6.4-2.7-9.3-10-6.6-16.4c2.7-6.4,10-9.3,16.4-6.6c6.4,2.7,9.3,10,6.6,16.4
					C1267.5,946.9,1260.1,949.9,1253.8,947.2z"/>
				<path class="st0" d="M1245.5,916.2c-5.6-2.4-8.2-8.8-5.8-14.4c2.4-5.6,8.8-8.2,14.4-5.8c5.6,2.4,8.2,8.8,5.8,14.4
					C1257.5,916,1251,918.6,1245.5,916.2z"/>
				<circle class="st0" cx="1237.6" cy="877.8" r="9.5"/>
				<path class="st0" d="M1219.1,858.3c-4-1.7-5.9-6.4-4.2-10.4s6.4-5.9,10.4-4.2c4,1.7,5.9,6.4,4.2,10.4S1223.2,860,1219.1,858.3z"
					/>
				<path class="st0" d="M1201.5,832c-3.3-1.4-4.8-5.1-3.4-8.4c1.4-3.3,5.1-4.8,8.4-3.4c3.3,1.4,4.8,5.1,3.4,8.4
					C1208.5,831.9,1204.8,833.4,1201.5,832z"/>
				<circle class="st0" cx="1183" cy="803.5" r="4.9"/>
				<circle class="st0" cx="1159.6" cy="783.4" r="3.4"/>
				<path class="st0" d="M1133.4,767.8c-0.9-0.4-1.4-1.5-1-2.4c0.4-0.9,1.5-1.4,2.4-1c0.9,0.4,1.4,1.5,1,2.4
					C1135.4,767.8,1134.3,768.2,1133.4,767.8z"/>
				<circle class="st0" cx="1106.8" cy="751.8" r="0.3"/>
			</g>
			<g>
				<circle class="st1" cx="831.3" cy="782.3" r="14"/>
				<path class="st1" d="M802.9,813.7c-6.4-2.7-9.3-10-6.6-16.4c2.7-6.4,10-9.3,16.4-6.6c6.4,2.7,9.3,10,6.6,16.4
					C816.6,813.4,809.2,816.4,802.9,813.7z"/>
				<path class="st1" d="M782.3,834.8c-5.6-2.4-8.2-8.8-5.8-14.4c2.4-5.6,8.8-8.2,14.4-5.8c5.6,2.4,8.2,8.8,5.8,14.4
					C794.4,834.5,787.9,837.1,782.3,834.8z"/>
				<path class="st1" d="M764.5,858.1c-4.8-2-7.1-7.6-5-12.4c2-4.8,7.6-7.1,12.4-5c4.8,2,7.1,7.6,5,12.4
					C774.9,857.9,769.3,860.1,764.5,858.1z"/>
				<circle class="st1" cx="752.7" cy="876.1" r="7.9"/>
				<circle class="st1" cx="740.3" cy="904.3" r="6.4"/>
				<path class="st1" d="M729.3,938.3c-2.5-1.1-3.6-3.9-2.6-6.4c1.1-2.5,3.9-3.6,6.4-2.6c2.5,1.1,3.6,3.9,2.6,6.4
					C734.6,938.2,731.7,939.3,729.3,938.3z"/>
				<path class="st1" d="M724.1,967.2c-1.7-0.7-2.5-2.7-1.8-4.4c0.7-1.7,2.7-2.5,4.4-1.8c1.7,0.7,2.5,2.7,1.8,4.4
					C727.8,967.1,725.8,967.9,724.1,967.2z"/>
				<path class="st1" d="M722.5,996.6c-0.9-0.4-1.4-1.5-1-2.4c0.4-0.9,1.5-1.4,2.4-1c0.9,0.4,1.4,1.5,1,2.4
					C724.5,996.5,723.4,997,722.5,996.6z"/>
				<circle class="st1" cx="724.5" cy="1025.7" r="0.3"/>
			</g>
			<g>
				<circle class="st2" cx="888.6" cy="1249" r="14"/>
				<path class="st2" d="M912.8,1270.9c-6.4-2.7-9.3-10-6.6-16.4c2.7-6.4,10-9.3,16.4-6.6c6.4,2.7,9.3,10,6.6,16.4
					C926.5,1270.7,919.1,1273.6,912.8,1270.9z"/>
				<path class="st2" d="M943.4,1276.6c-5.6-2.4-8.2-8.8-5.8-14.4c2.4-5.6,8.8-8.2,14.4-5.8c5.6,2.4,8.2,8.8,5.8,14.4
					C955.4,1276.4,949,1279,943.4,1276.6z"/>
				<circle class="st2" cx="978.3" cy="1270.1" r="9.5"/>
				<path class="st2" d="M1006.1,1277.5c-4-1.7-5.9-6.4-4.2-10.4c1.7-4,6.4-5.9,10.4-4.2c4,1.7,5.9,6.4,4.2,10.4
					C1014.8,1277.4,1010.1,1279.3,1006.1,1277.5z"/>
				<path class="st2" d="M1037.3,1272.7c-3.3-1.4-4.8-5.1-3.4-8.4c1.4-3.3,5.1-4.8,8.4-3.4c3.3,1.4,4.8,5.1,3.4,8.4
					C1044.3,1272.6,1040.6,1274.1,1037.3,1272.7z"/>
				<path class="st2" d="M1068,1264.4c-2.5-1.1-3.6-3.9-2.6-6.4c1.1-2.5,3.9-3.6,6.4-2.6c2.5,1.1,3.6,3.9,2.6,6.4
					C1073.3,1264.3,1070.5,1265.5,1068,1264.4z"/>
				<path class="st2" d="M1097.7,1252.8c-1.7-0.7-2.5-2.7-1.8-4.4s2.7-2.5,4.4-1.8c1.7,0.7,2.5,2.7,1.8,4.4
					S1099.4,1253.5,1097.7,1252.8z"/>
				<path class="st2" d="M1126,1238c-0.9-0.4-1.4-1.5-1-2.4s1.5-1.4,2.4-1c0.9,0.4,1.4,1.5,1,2.4
					C1128.1,1237.9,1127,1238.4,1126,1238z"/>
				<circle class="st2" cx="1152.8" cy="1219.8" r="0.3"/>
			</g>
		</g>
	</g>
	<g>
		<g>
			<g>
				<circle class="st0" cx="1285.3" cy="1003" r="15.1"/>
				<path class="st0" d="M1277,981.4c-6.4-3.8-8.4-12.1-4.6-18.5c3.8-6.4,12.1-8.4,18.5-4.6c6.4,3.8,8.4,12.1,4.6,18.5
					C1291.6,983.2,1283.4,985.2,1277,981.4z"/>
				<path class="st0" d="M1272.8,947.2c-5.6-3.4-7.4-10.6-4-16.2c3.4-5.6,10.6-7.4,16.2-4c5.6,3.4,7.4,10.6,4,16.2
					C1285.6,948.8,1278.4,950.6,1272.8,947.2z"/>
				<circle class="st0" cx="1270.1" cy="905.1" r="10.2"/>
				<path class="st0" d="M1253.4,881.6c-4-2.4-5.3-7.7-2.9-11.7c2.4-4,7.7-5.3,11.7-2.9c4,2.4,5.3,7.7,2.9,11.7
					C1262.7,882.7,1257.5,884.1,1253.4,881.6z"/>
				<path class="st0" d="M1238.6,851c-3.3-2-4.3-6.2-2.4-9.5c2-3.3,6.2-4.3,9.5-2.4c3.3,2,4.3,6.2,2.4,9.5
					C1246.1,851.9,1241.8,853,1238.6,851z"/>
				<circle class="st0" cx="1223.2" cy="817.9" r="5.3"/>
				<circle class="st0" cx="1201.3" cy="793" r="3.6"/>
				<path class="st0" d="M1175.7,772.4c-0.9-0.6-1.2-1.8-0.7-2.7c0.6-0.9,1.8-1.2,2.7-0.7c0.9,0.6,1.2,1.8,0.7,2.7
					S1176.6,773,1175.7,772.4z"/>
				<circle class="st0" cx="1149.7" cy="751.4" r="0.3"/>
			</g>
			<g>
				<circle class="st1" cx="851.8" cy="742.6" r="15.1"/>
				<path class="st1" d="M816.8,771.8c-6.4-3.8-8.4-12.1-4.6-18.5c3.8-6.4,12.1-8.4,18.5-4.6c6.4,3.8,8.4,12.1,4.6,18.5
					C831.5,773.6,823.2,775.6,816.8,771.8z"/>
				<path class="st1" d="M791.8,791.2c-5.6-3.4-7.4-10.6-4-16.2c3.4-5.6,10.6-7.4,16.2-4c5.6,3.4,7.4,10.6,4,16.2
					C804.7,792.7,797.4,794.5,791.8,791.2z"/>
				<path class="st1" d="M769.3,813.4c-4.8-2.9-6.4-9.1-3.5-14c2.9-4.8,9.1-6.4,14-3.5c4.8,2.9,6.4,9.1,3.5,14
					C780.4,814.7,774.2,816.2,769.3,813.4z"/>
				<circle class="st1" cx="754.1" cy="830.7" r="8.5"/>
				<circle class="st1" cx="736.7" cy="859" r="6.9"/>
				<path class="st1" d="M719.8,893.5c-2.5-1.5-3.3-4.7-1.8-7.2c1.5-2.5,4.7-3.3,7.2-1.8c2.5,1.5,3.3,4.7,1.8,7.2
					C725.5,894.2,722.3,895,719.8,893.5z"/>
				<path class="st1" d="M710,923.5c-1.7-1-2.3-3.3-1.2-5c1-1.7,3.3-2.3,5-1.2c1.7,1,2.3,3.3,1.2,5C714,924,711.7,924.5,710,923.5z"
					/>
				<path class="st1" d="M703.9,954.5c-0.9-0.6-1.2-1.8-0.7-2.7c0.6-0.9,1.8-1.2,2.7-0.7c0.9,0.6,1.2,1.8,0.7,2.7
					C706,954.8,704.8,955.1,703.9,954.5z"/>
				<circle class="st1" cx="701.7" cy="985.8" r="0.3"/>
			</g>
			<g>
				<circle class="st2" cx="843" cy="1248.2" r="15.1"/>
				<path class="st2" d="M865.5,1275.1c-6.4-3.8-8.4-12.1-4.6-18.5c3.8-6.4,12.1-8.4,18.4-4.6c6.4,3.8,8.4,12.1,4.6,18.5
					C880.1,1276.9,871.8,1279,865.5,1275.1z"/>
				<path class="st2" d="M897.2,1285.8c-5.6-3.4-7.4-10.6-4-16.2c3.4-5.6,10.6-7.4,16.2-4c5.6,3.4,7.4,10.6,4,16.2
					C910,1287.3,902.8,1289.1,897.2,1285.8z"/>
				<circle class="st2" cx="935.4" cy="1284.1" r="10.2"/>
				<path class="st2" d="M963.8,1296.1c-4-2.4-5.3-7.7-2.9-11.7c2.4-4,7.7-5.3,11.7-2.9c4,2.4,5.3,7.7,2.9,11.7
					C973.1,1297.3,967.8,1298.6,963.8,1296.1z"/>
				<path class="st2" d="M997.8,1295.7c-3.3-2-4.3-6.2-2.4-9.5c2-3.3,6.2-4.3,9.5-2.4c3.3,2,4.3,6.2,2.4,9.5
					C1005.3,1296.6,1001.1,1297.6,997.8,1295.7z"/>
				<path class="st2" d="M1031.7,1291.5c-2.5-1.5-3.3-4.7-1.8-7.2c1.5-2.5,4.7-3.3,7.2-1.8c2.5,1.5,3.3,4.7,1.8,7.2
					C1037.4,1292.1,1034.2,1293,1031.7,1291.5z"/>
				<path class="st2" d="M1065.1,1283.5c-1.7-1-2.3-3.3-1.2-5s3.3-2.3,5-1.2c1.7,1,2.3,3.3,1.2,5S1066.8,1284.6,1065.1,1283.5z"/>
				<path class="st2" d="M1097.5,1272c-0.9-0.6-1.2-1.8-0.7-2.7c0.6-0.9,1.8-1.2,2.7-0.7c0.9,0.6,1.2,1.8,0.7,2.7
					S1098.4,1272.5,1097.5,1272z"/>
				<circle class="st2" cx="1128.7" cy="1256.6" r="0.3"/>
			</g>
		</g>
	</g>
	<g>
		<g>
			<g>
				<circle class="st0" cx="1302.2" cy="1045.6" r="16.2"/>
				<path class="st0" d="M1296.6,1021.4c-6.2-5-7.2-14.1-2.1-20.3c5-6.2,14.1-7.2,20.3-2.1c6.2,5,7.2,14.1,2.1,20.3
					C1311.9,1025.4,1302.8,1026.4,1296.6,1021.4z"/>
				<path class="st0" d="M1297.2,984.3c-5.4-4.4-6.3-12.4-1.9-17.9c4.4-5.4,12.4-6.3,17.9-1.9c5.4,4.4,6.3,12.4,1.9,17.9
					C1310.7,987.9,1302.7,988.8,1297.2,984.3z"/>
				<circle class="st0" cx="1300.7" cy="939.1" r="10.9"/>
				<path class="st0" d="M1286.5,911.6c-3.9-3.2-4.5-9-1.4-12.9c3.2-3.9,9-4.5,12.9-1.4s4.5,9,1.4,12.9
					C1296.2,914.2,1290.4,914.8,1286.5,911.6z"/>
				<path class="st0" d="M1275.2,876.8c-3.2-2.6-3.7-7.2-1.1-10.4c2.6-3.2,7.2-3.7,10.4-1.1c3.2,2.6,3.7,7.2,1.1,10.4
					C1283.1,878.8,1278.4,879.3,1275.2,876.8z"/>
				<circle class="st0" cx="1263.8" cy="839.2" r="5.7"/>
				<circle class="st0" cx="1244.2" cy="809.4" r="3.9"/>
				<path class="st0" d="M1220,783.7c-0.9-0.7-1.1-2.1-0.3-3c0.7-0.9,2.1-1.1,3-0.3c0.9,0.7,1.1,2.1,0.3,3
					C1222.2,784.3,1220.9,784.4,1220,783.7z"/>
				<circle class="st0" cx="1195.5" cy="757.4" r="0.4"/>
			</g>
			<g>
				<circle class="st1" cx="879.6" cy="703.5" r="16.2"/>
				<path class="st1" d="M838,729.3c-6.2-5-7.2-14.1-2.1-20.3c5-6.2,14.1-7.2,20.3-2.1s7.2,14.1,2.1,20.3
					C853.3,733.4,844.2,734.3,838,729.3z"/>
				<path class="st1" d="M808.5,746.2c-5.5-4.4-6.3-12.4-1.9-17.9c4.4-5.4,12.4-6.3,17.9-1.9c5.4,4.4,6.3,12.4,1.9,17.9
					C821.9,749.8,813.9,750.6,808.5,746.2z"/>
				<path class="st1" d="M781.2,766.4c-4.7-3.8-5.4-10.7-1.6-15.4c3.8-4.7,10.7-5.4,15.4-1.6c4.7,3.8,5.4,10.7,1.6,15.4
					C792.8,769.5,785.9,770.2,781.2,766.4z"/>
				<circle class="st1" cx="762.4" cy="782.7" r="9.2"/>
				<circle class="st1" cx="739.6" cy="810.1" r="7.4"/>
				<path class="st1" d="M716.5,844.3c-2.4-2-2.8-5.5-0.8-8c2-2.4,5.5-2.8,8-0.8c2.4,2,2.8,5.5,0.8,8
					C722.5,845.9,718.9,846.3,716.5,844.3z"/>
				<path class="st1" d="M701.6,874.8c-1.7-1.4-1.9-3.8-0.6-5.5c1.4-1.7,3.8-1.9,5.5-0.6c1.7,1.4,1.9,3.8,0.6,5.5
					C705.7,875.9,703.2,876.2,701.6,874.8z"/>
				<path class="st1" d="M690.4,906.9c-0.9-0.7-1.1-2.1-0.3-3c0.7-0.9,2.1-1.1,3-0.3c0.9,0.7,1.1,2.1,0.3,3S691.3,907.7,690.4,906.9
					z"/>
				<circle class="st1" cx="683.4" cy="939.9" r="0.4"/>
			</g>
			<g>
				<circle class="st2" cx="794.6" cy="1240.4" r="16.2"/>
				<path class="st2" d="M814.4,1272.5c-6.2-5-7.2-14.1-2.1-20.3c5-6.2,14.1-7.2,20.3-2.1s7.2,14.1,2.1,20.3
					C829.7,1276.6,820.6,1277.6,814.4,1272.5z"/>
				<path class="st2" d="M846.7,1288.6c-5.4-4.4-6.3-12.4-1.9-17.9c4.4-5.4,12.4-6.3,17.9-1.9c5.4,4.4,6.3,12.4,1.9,17.9
					C860.1,1292.2,852.1,1293,846.7,1288.6z"/>
				<circle class="st2" cx="887.5" cy="1292.5" r="10.9"/>
				<path class="st2" d="M916,1309.6c-3.9-3.2-4.5-9-1.4-12.9c3.2-3.9,9-4.5,12.9-1.4c3.9,3.2,4.5,9,1.4,12.9
					C925.7,1312.2,920,1312.8,916,1309.6z"/>
				<path class="st2" d="M952.3,1314.2c-3.2-2.6-3.7-7.2-1.1-10.4c2.6-3.2,7.2-3.7,10.4-1.1c3.2,2.6,3.7,7.2,1.1,10.4
					C960.1,1316.3,955.5,1316.8,952.3,1314.2z"/>
				<path class="st2" d="M989,1314.8c-2.4-2-2.8-5.5-0.8-8c2-2.4,5.5-2.8,8-0.8c2.4,2,2.8,5.5,0.8,8
					C995,1316.4,991.4,1316.8,989,1314.8z"/>
				<path class="st2" d="M1025.7,1311.3c-1.7-1.4-1.9-3.8-0.6-5.5c1.4-1.7,3.8-1.9,5.5-0.6c1.7,1.4,1.9,3.8,0.6,5.5
					C1029.8,1312.4,1027.4,1312.7,1025.7,1311.3z"/>
				<path class="st2" d="M1062,1303.9c-0.9-0.7-1.1-2.1-0.3-3c0.7-0.9,2.1-1.1,3-0.3c0.9,0.7,1.1,2.1,0.3,3
					C1064.2,1304.5,1062.9,1304.6,1062,1303.9z"/>
				<circle class="st2" cx="1097.5" cy="1292.2" r="0.4"/>
			</g>
		</g>
	</g>
	<g>
		<g>
			<g>
				<circle class="st0" cx="1313.8" cy="1093.5" r="17.4"/>
				<path class="st0" d="M1311.5,1066.9c-5.9-6.3-5.5-16.1,0.8-22c6.3-5.9,16.1-5.5,22,0.8c5.9,6.3,5.5,16.1-0.8,22
					C1327.2,1073.5,1317.4,1073.1,1311.5,1066.9z"/>
				<path class="st0" d="M1317.7,1027.5c-5.1-5.5-4.8-14.2,0.7-19.3c5.5-5.1,14.2-4.8,19.3,0.7c5.1,5.5,4.8,14.2-0.7,19.3
					C1331.5,1033.3,1322.9,1033,1317.7,1027.5z"/>
				<circle class="st0" cx="1328.2" cy="979.9" r="11.8"/>
				<path class="st0" d="M1317.1,948.4c-3.7-4-3.5-10.2,0.5-13.9s10.2-3.5,13.9,0.5s3.5,10.2-0.5,13.9
					C1327.1,952.6,1320.8,952.4,1317.1,948.4z"/>
				<path class="st0" d="M1310.4,909.7c-3-3.2-2.8-8.3,0.4-11.3c3.2-3,8.3-2.8,11.3,0.4c3,3.2,2.8,8.3-0.4,11.3
					C1318.4,913.1,1313.4,912.9,1310.4,909.7z"/>
				<circle class="st0" cx="1303.8" cy="867.9" r="6.1"/>
				<circle class="st0" cx="1287.4" cy="833.3" r="4.2"/>
				<path class="st0" d="M1265.5,802.3c-0.9-0.9-0.8-2.4,0.1-3.2c0.9-0.9,2.4-0.8,3.2,0.1c0.9,0.9,0.8,2.4-0.1,3.2
					S1266.3,803.2,1265.5,802.3z"/>
				<circle class="st0" cx="1243.3" cy="770.7" r="0.4"/>
			</g>
			<g>
				<circle class="st1" cx="915.1" cy="665.9" r="17.4"/>
				<path class="st1" d="M866.9,687.2c-5.9-6.3-5.5-16.1,0.8-22c6.3-5.9,16.1-5.5,22,0.8c5.9,6.3,5.5,16.1-0.8,22
					C882.6,693.9,872.8,693.5,866.9,687.2z"/>
				<path class="st1" d="M832.9,700.8c-5.1-5.5-4.8-14.2,0.7-19.3c5.5-5.1,14.2-4.8,19.3,0.7c5.1,5.5,4.8,14.2-0.7,19.3
					C846.7,706.6,838.1,706.3,832.9,700.8z"/>
				<path class="st1" d="M800.9,718.3c-4.4-4.7-4.2-12.2,0.6-16.6c4.8-4.4,12.2-4.2,16.6,0.6c4.4,4.7,4.2,12.2-0.6,16.6
					C812.7,723.3,805.3,723,800.9,718.3z"/>
				<circle class="st1" cx="778.4" cy="732.7" r="9.9"/>
				<circle class="st1" cx="750" cy="758.5" r="8"/>
				<path class="st1" d="M720.3,791.5c-2.3-2.5-2.2-6.3,0.3-8.6c2.5-2.3,6.3-2.2,8.6,0.3c2.3,2.5,2.2,6.3-0.3,8.6
					C726.4,794.1,722.6,794,720.3,791.5z"/>
				<path class="st1" d="M699.8,821.8c-1.6-1.7-1.5-4.3,0.2-5.9c1.7-1.6,4.3-1.5,5.9,0.2c1.6,1.7,1.5,4.3-0.2,5.9
					C704.1,823.5,701.4,823.5,699.8,821.8z"/>
				<path class="st1" d="M683.1,854.3c-0.9-0.9-0.8-2.4,0.1-3.2c0.9-0.9,2.4-0.8,3.2,0.1c0.9,0.9,0.8,2.4-0.1,3.2
					C685.5,855.3,684,855.2,683.1,854.3z"/>
				<circle class="st1" cx="670.7" cy="888.4" r="0.4"/>
			</g>
			<g>
				<circle class="st2" cx="744.2" cy="1225" r="17.4"/>
				<path class="st2" d="M760.5,1262.1c-5.9-6.3-5.5-16.1,0.8-22c6.3-5.9,16.1-5.5,22,0.8s5.5,16.1-0.8,22
					C776.2,1268.8,766.4,1268.4,760.5,1262.1z"/>
				<path class="st2" d="M792.4,1284.1c-5.1-5.5-4.8-14.2,0.7-19.3c5.5-5.1,14.2-4.8,19.3,0.7c5.1,5.5,4.8,14.2-0.7,19.3
					C806.2,1289.9,797.5,1289.6,792.4,1284.1z"/>
				<circle class="st2" cx="835.4" cy="1294.4" r="11.8"/>
				<path class="st2" d="M863.1,1316.8c-3.7-4-3.5-10.2,0.5-13.9c4-3.7,10.2-3.5,13.9,0.5c3.7,4,3.5,10.2-0.5,13.9
					C873.1,1321,866.8,1320.8,863.1,1316.8z"/>
				<path class="st2" d="M901.1,1327.1c-3-3.2-2.8-8.3,0.4-11.3c3.2-3,8.3-2.8,11.3,0.4c3,3.2,2.8,8.3-0.4,11.3
					C909.1,1330.5,904.1,1330.4,901.1,1327.1z"/>
				<path class="st2" d="M940.1,1333.2c-2.3-2.5-2.2-6.3,0.3-8.6c2.5-2.3,6.3-2.2,8.6,0.3c2.3,2.5,2.2,6.3-0.3,8.6
					S942.4,1335.7,940.1,1333.2z"/>
				<path class="st2" d="M979.7,1335.1c-1.6-1.7-1.5-4.3,0.2-5.9c1.7-1.6,4.3-1.5,5.9,0.2c1.6,1.7,1.5,4.3-0.2,5.9
					C983.9,1336.8,981.3,1336.8,979.7,1335.1z"/>
				<path class="st2" d="M1019.4,1332.5c-0.9-0.9-0.8-2.4,0.1-3.2c0.9-0.9,2.4-0.8,3.2,0.1c0.9,0.9,0.8,2.4-0.1,3.2
					C1021.7,1333.5,1020.3,1333.5,1019.4,1332.5z"/>
				<circle class="st2" cx="1059" cy="1325.4" r="0.4"/>
			</g>
		</g>
	</g>
	<g>
		<g>
			<g>
				<circle class="st0" cx="1319" cy="1146.2" r="18.8"/>
				<path class="st0" d="M1320.6,1117.5c-5.3-7.6-3.5-18,4.1-23.3c7.6-5.3,18-3.5,23.3,4.1c5.3,7.6,3.5,18-4.1,23.3
					C1336.3,1126.9,1325.9,1125.1,1320.6,1117.5z"/>
				<path class="st0" d="M1333.1,1076.5c-4.7-6.6-3-15.8,3.6-20.4c6.6-4.7,15.8-3,20.4,3.6s3,15.8-3.6,20.4
					S1337.7,1083.2,1333.1,1076.5z"/>
				<circle class="st0" cx="1351.4" cy="1027.4" r="12.6"/>
				<path class="st0" d="M1344.3,992.2c-3.4-4.8-2.2-11.4,2.6-14.8c4.8-3.4,11.4-2.2,14.8,2.6c3.4,4.8,2.2,11.4-2.6,14.8
					C1354.3,998.2,1347.6,997,1344.3,992.2z"/>
				<path class="st0" d="M1342.9,950c-2.7-3.9-1.8-9.2,2.1-11.9c3.9-2.7,9.2-1.8,11.9,2.1c2.7,3.9,1.8,9.2-2.1,11.9
					C1350.9,954.8,1345.6,953.8,1342.9,950z"/>
				<circle class="st0" cx="1342.2" cy="904.5" r="6.5"/>
				<circle class="st0" cx="1329.9" cy="865.2" r="4.5"/>
				<path class="st0" d="M1311.2,828.9c-0.8-1.1-0.5-2.7,0.6-3.4c1.1-0.8,2.7-0.5,3.4,0.6c0.8,1.1,0.5,2.7-0.6,3.4
					C1313.5,830.3,1311.9,830,1311.2,828.9z"/>
				<circle class="st0" cx="1292.3" cy="791.9" r="0.4"/>
			</g>
			<g>
				<circle class="st1" cx="958.5" cy="631.3" r="18.8"/>
				<path class="st1" d="M904,646.8c-5.3-7.6-3.5-18,4.1-23.3c7.6-5.3,18-3.5,23.3,4.1c5.3,7.6,3.5,18-4.1,23.3
					C919.7,656.2,909.3,654.3,904,646.8z"/>
				<path class="st1" d="M865.8,656.1c-4.7-6.6-3-15.8,3.6-20.4c6.6-4.7,15.8-3,20.4,3.6c4.7,6.6,3,15.8-3.6,20.4
					C879.6,664.3,870.4,662.7,865.8,656.1z"/>
				<path class="st1" d="M829,669.9c-4-5.7-2.6-13.6,3.1-17.6c5.7-4,13.6-2.6,17.6,3.1c4,5.7,2.6,13.6-3.1,17.6
					C840.9,677,833,675.6,829,669.9z"/>
				<circle class="st1" cx="802.9" cy="681.9" r="10.6"/>
				<circle class="st1" cx="768.9" cy="705.2" r="8.6"/>
				<path class="st1" d="M732.3,735.9c-2.1-3-1.4-7,1.6-9.1c3-2.1,7-1.4,9.1,1.6c2.1,3,1.4,7-1.6,9.1
					C738.4,739.5,734.3,738.8,732.3,735.9z"/>
				<path class="st1" d="M706,765c-1.4-2-0.9-4.8,1.1-6.3c2-1.4,4.8-0.9,6.3,1.1c1.4,2,0.9,4.8-1.1,6.3
					C710.2,767.5,707.4,767,706,765z"/>
				<path class="st1" d="M683.3,797.1c-0.8-1.1-0.5-2.7,0.6-3.4s2.7-0.5,3.4,0.6c0.8,1.1,0.5,2.7-0.6,3.4
					C685.6,798.5,684.1,798.2,683.3,797.1z"/>
				<circle class="st1" cx="664.9" cy="831.6" r="0.4"/>
			</g>
			<g>
				<circle class="st2" cx="692.8" cy="1201" r="18.8"/>
				<path class="st2" d="M704.6,1243c-5.3-7.6-3.5-18,4.1-23.3c7.6-5.3,18-3.5,23.3,4.1c5.3,7.6,3.5,18-4.1,23.3
					C720.4,1252.4,709.9,1250.5,704.6,1243z"/>
				<path class="st2" d="M735.3,1271.1c-4.7-6.6-3-15.8,3.6-20.4c6.6-4.7,15.8-3,20.4,3.6c4.7,6.6,3,15.8-3.6,20.4
					C749.1,1279.4,740,1277.8,735.3,1271.1z"/>
				<circle class="st2" cx="779.5" cy="1288.5" r="12.6"/>
				<path class="st2" d="M805.7,1316.6c-3.4-4.8-2.2-11.4,2.6-14.8c4.8-3.4,11.4-2.2,14.8,2.6c3.4,4.8,2.2,11.4-2.6,14.8
					C815.7,1322.5,809.1,1321.4,805.7,1316.6z"/>
				<path class="st2" d="M844.6,1333.2c-2.7-3.9-1.8-9.2,2.1-11.9c3.9-2.7,9.2-1.8,11.9,2.1c2.7,3.9,1.8,9.2-2.1,11.9
					C852.6,1338.1,847.3,1337.1,844.6,1333.2z"/>
				<path class="st2" d="M885.2,1345.6c-2.1-3-1.4-7,1.6-9.1c3-2.1,7-1.4,9.1,1.6c2.1,3,1.4,7-1.6,9.1S887.3,1348.5,885.2,1345.6z"
					/>
				<path class="st2" d="M927.1,1353.4c-1.4-2-0.9-4.8,1.1-6.3c2-1.4,4.8-0.9,6.3,1.1c1.4,2,0.9,4.8-1.1,6.3
					C931.3,1356,928.5,1355.5,927.1,1353.4z"/>
				<path class="st2" d="M969.8,1356.7c-0.8-1.1-0.5-2.7,0.6-3.4c1.1-0.8,2.7-0.5,3.4,0.6c0.8,1.1,0.5,2.7-0.6,3.4
					S970.6,1357.8,969.8,1356.7z"/>
				<circle class="st2" cx="1013" cy="1355.1" r="0.4"/>
			</g>
		</g>
	</g>
	<g>
		<g>
			<g>
				<circle class="st0" cx="1316.7" cy="1203.2" r="20.2"/>
				<path class="st0" d="M1322.7,1172.8c-4.5-8.8-1-19.7,7.9-24.2c8.8-4.5,19.7-1,24.2,7.9c4.5,8.8,1,19.7-7.9,24.2
					C1338,1185.2,1327.2,1181.6,1322.7,1172.8z"/>
				<path class="st0" d="M1342.1,1131.1c-4-7.8-0.9-17.3,6.9-21.2c7.8-4,17.3-0.9,21.2,6.9c4,7.8,0.9,17.3-6.9,21.2
					C1355.5,1141.9,1346,1138.8,1342.1,1131.1z"/>
				<circle class="st0" cx="1368.9" cy="1081.4" r="13.6"/>
				<path class="st0" d="M1366.6,1043c-2.9-5.6-0.6-12.5,5-15.3c5.6-2.9,12.5-0.6,15.3,5c2.9,5.6,0.6,12.5-5,15.3
					C1376.4,1050.8,1369.5,1048.6,1366.6,1043z"/>
				<path class="st0" d="M1371.5,997.7c-2.3-4.5-0.5-10.1,4-12.4c4.5-2.3,10.1-0.5,12.4,4c2.3,4.5,0.5,10.1-4,12.4
					C1379.3,1004.1,1373.8,1002.3,1371.5,997.7z"/>
				<circle class="st0" cx="1377.5" cy="949.3" r="7"/>
				<circle class="st0" cx="1370.3" cy="905.5" r="4.8"/>
				<path class="st0" d="M1355.8,864.1c-0.7-1.3-0.1-2.9,1.2-3.6c1.3-0.7,2.9-0.1,3.6,1.2c0.7,1.3,0.1,2.9-1.2,3.6
					C1358.1,865.9,1356.5,865.4,1355.8,864.1z"/>
				<circle class="st0" cx="1341.3" cy="821.9" r="0.5"/>
			</g>
			<g>
				<circle class="st1" cx="1009.8" cy="600.9" r="20.2"/>
				<path class="st1" d="M949.5,609.2c-4.5-8.8-1-19.7,7.9-24.2c8.8-4.5,19.7-1,24.2,7.9c4.5,8.8,1,19.7-7.9,24.2
					C964.8,621.6,954,618,949.5,609.2z"/>
				<path class="st1" d="M907.4,613.4c-4-7.8-0.9-17.3,6.9-21.2c7.8-4,17.3-0.9,21.2,6.9c4,7.8,0.9,17.3-6.9,21.2
					C920.9,624.3,911.4,621.2,907.4,613.4z"/>
				<path class="st1" d="M866.2,622.6c-3.4-6.7-0.7-14.9,5.9-18.3c6.7-3.4,14.9-0.7,18.3,5.9s0.7,14.9-5.9,18.3
					C877.8,632,869.6,629.3,866.2,622.6z"/>
				<circle class="st1" cx="836.6" cy="631.5" r="11.4"/>
				<circle class="st1" cx="796.9" cy="651.2" r="9.2"/>
				<path class="st1" d="M753.3,678.4c-1.8-3.5-0.4-7.7,3.1-9.5c3.5-1.8,7.7-0.4,9.5,3.1c1.8,3.5,0.4,7.7-3.1,9.5
					C759.3,683.2,755.1,681.8,753.3,678.4z"/>
				<path class="st1" d="M720.9,705.5c-1.2-2.4-0.3-5.3,2.1-6.5c2.4-1.2,5.3-0.3,6.5,2.1c1.2,2.4,0.3,5.3-2.1,6.5
					C725.1,708.8,722.2,707.8,720.9,705.5z"/>
				<path class="st1" d="M692,736.3c-0.7-1.3-0.1-2.9,1.2-3.6s2.9-0.1,3.6,1.2s0.1,2.9-1.2,3.6C694.3,738.1,692.7,737.6,692,736.3z"
					/>
				<circle class="st1" cx="667.3" cy="770.2" r="0.5"/>
			</g>
			<g>
				<circle class="st2" cx="641.7" cy="1167.8" r="20.2"/>
				<path class="st2" d="M648,1214.2c-4.5-8.8-1-19.7,7.9-24.2c8.8-4.5,19.7-1,24.2,7.9c4.5,8.8,1,19.7-7.9,24.2
					C663.4,1226.6,652.5,1223.1,648,1214.2z"/>
				<path class="st2" d="M676.5,1248.8c-4-7.8-0.9-17.3,6.9-21.2s17.3-0.9,21.2,6.9c4,7.8,0.9,17.3-6.9,21.2
					C689.9,1259.6,680.4,1256.6,676.5,1248.8z"/>
				<circle class="st2" cx="720.9" cy="1273.9" r="13.6"/>
				<path class="st2" d="M744.7,1307.7c-2.9-5.6-0.6-12.5,5-15.3c5.6-2.9,12.5-0.6,15.3,5c2.9,5.6,0.6,12.5-5,15.3
					C754.4,1315.6,747.5,1313.3,744.7,1307.7z"/>
				<path class="st2" d="M783.5,1331.3c-2.3-4.5-0.5-10.1,4-12.4c4.5-2.3,10.1-0.5,12.4,4c2.3,4.5,0.5,10.1-4,12.4
					C791.4,1337.6,785.8,1335.8,783.5,1331.3z"/>
				<path class="st2" d="M824.9,1350.5c-1.8-3.5-0.4-7.7,3.1-9.5c3.5-1.8,7.7-0.4,9.5,3.1c1.8,3.5,0.4,7.7-3.1,9.5
					C830.9,1355.3,826.7,1354,824.9,1350.5z"/>
				<path class="st2" d="M868.4,1365.1c-1.2-2.4-0.3-5.3,2.1-6.5s5.3-0.3,6.5,2.1c1.2,2.4,0.3,5.3-2.1,6.5
					S869.6,1367.5,868.4,1365.1z"/>
				<path class="st2" d="M913.3,1375c-0.7-1.3-0.1-2.9,1.2-3.6c1.3-0.7,2.9-0.1,3.6,1.2c0.7,1.3,0.1,2.9-1.2,3.6
					C915.6,1376.8,914,1376.3,913.3,1375z"/>
				<circle class="st2" cx="959.6" cy="1379.7" r="0.5"/>
			</g>
		</g>
	</g>
	<g>
		<g>
			<g>
				<circle class="st0" cx="1305.7" cy="1263.4" r="21.7"/>
				<path class="st0" d="M1316.6,1232c-3.5-10.1,1.9-21.1,12-24.6c10.1-3.5,21.1,1.9,24.6,12c3.5,10.1-1.9,21.1-12,24.6
					C1331.1,1247.4,1320.1,1242.1,1316.6,1232z"/>
				<path class="st0" d="M1343.5,1190.4c-3.1-8.9,1.7-18.5,10.5-21.6c8.9-3.1,18.5,1.7,21.6,10.5c3.1,8.9-1.7,18.5-10.5,21.6
					C1356.2,1204,1346.6,1199.3,1343.5,1190.4z"/>
				<circle class="st0" cx="1379.5" cy="1141.6" r="14.6"/>
				<path class="st0" d="M1382.8,1100.3c-2.2-6.4,1.2-13.4,7.6-15.6c6.4-2.2,13.4,1.2,15.6,7.6c2.2,6.4-1.2,13.4-7.6,15.6
					C1392,1110.1,1385.1,1106.7,1382.8,1100.3z"/>
				<path class="st0" d="M1394.8,1052.9c-1.8-5.2,1-10.8,6.1-12.6c5.2-1.8,10.8,1,12.6,6.1c1.8,5.2-1,10.8-6.1,12.6
					C1402.2,1060.8,1396.6,1058.1,1394.8,1052.9z"/>
				<circle class="st0" cx="1408.5" cy="1002.2" r="7.6"/>
				<circle class="st0" cx="1407.4" cy="954.5" r="5.2"/>
				<path class="st0" d="M1398.1,908.2c-0.5-1.5,0.3-3.1,1.8-3.6c1.5-0.5,3.1,0.3,3.6,1.8c0.5,1.5-0.3,3.1-1.8,3.6
					C1400.2,910.5,1398.6,909.7,1398.1,908.2z"/>
				<circle class="st0" cx="1388.9" cy="861.1" r="0.5"/>
			</g>
			<g>
				<circle class="st1" cx="1069.1" cy="576.2" r="21.7"/>
				<path class="st1" d="M1003.6,576c-3.5-10.1,1.9-21.1,12-24.6c10.1-3.5,21.1,1.9,24.6,12c3.5,10.1-1.9,21.1-12,24.6
					C1018.1,591.5,1007.1,586.1,1003.6,576z"/>
				<path class="st1" d="M958.1,574.2c-3.1-8.9,1.7-18.5,10.5-21.6c8.9-3.1,18.5,1.7,21.6,10.5c3.1,8.9-1.7,18.5-10.5,21.6
					C970.8,587.8,961.2,583.1,958.1,574.2z"/>
				<path class="st1" d="M912.9,577.9c-2.6-7.6,1.4-16,9.1-18.6c7.6-2.6,16,1.4,18.6,9.1c2.6,7.6-1.4,16-9.1,18.6
					C923.8,589.6,915.5,585.5,912.9,577.9z"/>
				<circle class="st1" cx="880.1" cy="582.9" r="12.3"/>
				<circle class="st1" cx="834.8" cy="597.9" r="9.9"/>
				<path class="st1" d="M784.3,620.3c-1.4-3.9,0.7-8.2,4.7-9.6c3.9-1.4,8.2,0.7,9.6,4.7c1.4,3.9-0.7,8.2-4.7,9.6
					C790,626.4,785.7,624.3,784.3,620.3z"/>
				<path class="st1" d="M745.8,644.3c-0.9-2.7,0.5-5.7,3.2-6.6c2.7-0.9,5.7,0.5,6.6,3.2c0.9,2.7-0.5,5.7-3.2,6.6
					C749.7,648.5,746.8,647,745.8,644.3z"/>
				<path class="st1" d="M710.4,672.8c-0.5-1.5,0.3-3.1,1.8-3.6c1.5-0.5,3.1,0.3,3.6,1.8c0.5,1.5-0.3,3.1-1.8,3.6
					C712.5,675.1,710.9,674.3,710.4,672.8z"/>
				<circle class="st1" cx="679" cy="705.2" r="0.5"/>
			</g>
			<g>
				<circle class="st2" cx="592.3" cy="1124.7" r="21.7"/>
				<path class="st2" d="M592,1175.1c-3.5-10.1,1.9-21.1,12-24.6c10.1-3.5,21.1,1.9,24.6,12s-1.9,21.1-12,24.6
					C606.5,1190.6,595.5,1185.2,592,1175.1z"/>
				<path class="st2" d="M617.2,1216.2c-3.1-8.9,1.7-18.5,10.5-21.6c8.9-3.1,18.5,1.7,21.6,10.5c3.1,8.9-1.7,18.5-10.5,21.6
					C629.9,1229.8,620.2,1225.1,617.2,1216.2z"/>
				<circle class="st2" cx="660.7" cy="1249.6" r="14.6"/>
				<path class="st2" d="M680.9,1289.1c-2.2-6.4,1.2-13.4,7.6-15.6c6.4-2.2,13.4,1.2,15.6,7.6c2.2,6.4-1.2,13.4-7.6,15.6
					C690.1,1298.9,683.1,1295.5,680.9,1289.1z"/>
				<path class="st2" d="M718.8,1320c-1.8-5.2,1-10.8,6.1-12.6c5.2-1.8,10.8,1,12.6,6.1c1.8,5.2-1,10.8-6.1,12.6
					C726.2,1328,720.6,1325.2,718.8,1320z"/>
				<path class="st2" d="M760,1346.7c-1.4-3.9,0.7-8.2,4.7-9.6s8.2,0.7,9.6,4.7c1.4,3.9-0.7,8.2-4.7,9.6
					C765.7,1352.8,761.4,1350.7,760,1346.7z"/>
				<path class="st2" d="M804.1,1368.8c-0.9-2.7,0.5-5.7,3.2-6.6s5.7,0.5,6.6,3.2c0.9,2.7-0.5,5.7-3.2,6.6
					C808,1373,805,1371.5,804.1,1368.8z"/>
				<path class="st2" d="M850.5,1386c-0.5-1.5,0.3-3.1,1.8-3.6c1.5-0.5,3.1,0.3,3.6,1.8c0.5,1.5-0.3,3.1-1.8,3.6
					C852.6,1388.3,851,1387.5,850.5,1386z"/>
				<circle class="st2" cx="899.1" cy="1398" r="0.5"/>
			</g>
		</g>
	</g>
	<g>
		<g>
			<g>
				<circle class="st0" cx="1285" cy="1325.9" r="23.3"/>
				<path class="st0" d="M1301.3,1294.1c-2.2-11.3,5.2-22.2,16.4-24.4c11.3-2.2,22.2,5.2,24.4,16.4c2.2,11.3-5.2,22.2-16.4,24.4
					C1314.4,1312.7,1303.5,1305.4,1301.3,1294.1z"/>
				<path class="st0" d="M1336.2,1253.9c-1.9-9.9,4.5-19.5,14.4-21.4c9.9-1.9,19.5,4.5,21.4,14.4c1.9,9.9-4.5,19.5-14.4,21.4
					C1347.7,1270.2,1338.1,1263.8,1336.2,1253.9z"/>
				<circle class="st0" cx="1381.8" cy="1207.3" r="15.7"/>
				<path class="st0" d="M1391.5,1163.8c-1.4-7.2,3.3-14.1,10.4-15.5c7.2-1.4,14.1,3.3,15.5,10.4s-3.3,14.1-10.4,15.5
					C1399.8,1175.6,1392.9,1171,1391.5,1163.8z"/>
				<path class="st0" d="M1411.3,1115.1c-1.1-5.8,2.7-11.4,8.4-12.5c5.8-1.1,11.4,2.7,12.5,8.4c1.1,5.8-2.7,11.4-8.4,12.5
					C1418,1124.6,1412.5,1120.9,1411.3,1115.1z"/>
				<circle class="st0" cx="1433.5" cy="1063.1" r="8.1"/>
				<circle class="st0" cx="1439.4" cy="1012.2" r="5.6"/>
				<path class="st0" d="M1436.5,961.5c-0.3-1.7,0.8-3.3,2.4-3.6c1.7-0.3,3.3,0.8,3.6,2.4c0.3,1.7-0.8,3.3-2.4,3.6
					C1438.4,964.3,1436.8,963.2,1436.5,961.5z"/>
				<circle class="st0" cx="1433.8" cy="910" r="0.5"/>
			</g>
			<g>
				<circle class="st1" cx="1135.9" cy="558.8" r="23.3"/>
				<path class="st1" d="M1066.1,548.8c-2.2-11.3,5.2-22.2,16.4-24.4c11.3-2.2,22.2,5.2,24.4,16.4c2.2,11.3-5.2,22.2-16.4,24.4
					C1079.2,567.4,1068.3,560,1066.1,548.8z"/>
				<path class="st1" d="M1018,540.1c-1.9-9.9,4.5-19.5,14.4-21.4c9.9-1.9,19.5,4.5,21.4,14.4c1.9,9.9-4.5,19.5-14.4,21.4
					C1029.5,556.4,1019.9,550,1018,540.1z"/>
				<path class="st1" d="M969.3,537.2c-1.7-8.5,3.9-16.8,12.4-18.4c8.5-1.7,16.8,3.9,18.4,12.4c1.7,8.5-3.9,16.8-12.4,18.4
					C979.2,551.3,971,545.7,969.3,537.2z"/>
				<circle class="st1" cx="933.6" cy="537.6" r="13.2"/>
				<circle class="st1" cx="883.1" cy="546.8" r="10.7"/>
				<path class="st1" d="M826.1,563.2c-0.9-4.4,2-8.7,6.4-9.5c4.4-0.9,8.7,2,9.5,6.4c0.9,4.4-2,8.7-6.4,9.5
					C831.2,570.4,826.9,567.6,826.1,563.2z"/>
				<path class="st1" d="M781.5,582.9c-0.6-3,1.4-6,4.4-6.6c3-0.6,6,1.4,6.6,4.4c0.6,3-1.4,6-4.4,6.6C785,588,782.1,586,781.5,582.9
					z"/>
				<path class="st1" d="M739.5,608c-0.3-1.7,0.8-3.3,2.4-3.6c1.7-0.3,3.3,0.8,3.6,2.4c0.3,1.7-0.8,3.3-2.4,3.6
					C741.4,610.7,739.8,609.6,739.5,608z"/>
				<circle class="st1" cx="701.2" cy="637.8" r="0.5"/>
			</g>
			<g>
				<circle class="st2" cx="546.1" cy="1071.5" r="23.3"/>
				<path class="st2" d="M538.3,1125.2c-2.2-11.3,5.2-22.2,16.4-24.4c11.3-2.2,22.2,5.2,24.4,16.4c2.2,11.3-5.2,22.2-16.4,24.4
					C551.4,1143.8,540.5,1136.4,538.3,1125.2z"/>
				<path class="st2" d="M558.9,1172.6c-1.9-9.9,4.5-19.5,14.4-21.4c9.9-1.9,19.5,4.5,21.4,14.4c1.9,9.9-4.5,19.5-14.4,21.4
					S560.8,1182.5,558.9,1172.6z"/>
				<circle class="st2" cx="600.3" cy="1214.7" r="15.7"/>
				<path class="st2" d="M615.9,1259.8c-1.4-7.2,3.3-14.1,10.4-15.5c7.2-1.4,14.1,3.3,15.5,10.4c1.4,7.2-3.3,14.1-10.4,15.5
					C624.2,1271.7,617.3,1267,615.9,1259.8z"/>
				<path class="st2" d="M651.6,1298.4c-1.1-5.8,2.7-11.4,8.4-12.5c5.8-1.1,11.4,2.7,12.5,8.4c1.1,5.8-2.7,11.4-8.4,12.5
					C658.3,1308,652.7,1304.2,651.6,1298.4z"/>
				<path class="st2" d="M691.5,1333c-0.9-4.4,2-8.7,6.4-9.5c4.4-0.9,8.7,2,9.5,6.4c0.9,4.4-2,8.7-6.4,9.5
					C696.6,1340.3,692.3,1337.4,691.5,1333z"/>
				<path class="st2" d="M735.1,1363.1c-0.6-3,1.4-6,4.4-6.6s6,1.4,6.6,4.4c0.6,3-1.4,6-4.4,6.6
					C738.6,1368.1,735.7,1366.1,735.1,1363.1z"/>
				<path class="st2" d="M781.9,1388.4c-0.3-1.7,0.8-3.3,2.4-3.6c1.7-0.3,3.3,0.8,3.6,2.4c0.3,1.7-0.8,3.3-2.4,3.6
					C783.8,1391.1,782.2,1390,781.9,1388.4z"/>
				<circle class="st2" cx="831.8" cy="1408.4" r="0.5"/>
			</g>
		</g>
	</g>
	<g>
		<g>
			<g>
				<circle class="st0" cx="1253.6" cy="1389.4" r="25.1"/>
				<path class="st0" d="M1275.7,1358c-0.6-12.3,8.8-22.8,21.1-23.5c12.3-0.6,22.8,8.8,23.5,21.1c0.6,12.3-8.8,22.8-21.1,23.5
					C1286.8,1379.7,1276.3,1370.3,1275.7,1358z"/>
				<path class="st0" d="M1318.8,1320.4c-0.6-10.8,7.7-20.1,18.6-20.6c10.8-0.6,20.1,7.7,20.6,18.6c0.6,10.8-7.7,20.1-18.6,20.6
					C1328.6,1339.5,1319.4,1331.2,1318.8,1320.4z"/>
				<circle class="st0" cx="1374.4" cy="1277.6" r="16.9"/>
				<path class="st0" d="M1391.3,1232.7c-0.4-7.8,5.6-14.5,13.4-14.9c7.8-0.4,14.5,5.6,14.9,13.4s-5.6,14.5-13.4,14.9
					C1398.4,1246.6,1391.7,1240.5,1391.3,1232.7z"/>
				<path class="st0" d="M1419.6,1183.8c-0.3-6.3,4.5-11.7,10.8-12c6.3-0.3,11.7,4.5,12,10.8c0.3,6.3-4.5,11.7-10.8,12
					C1425.4,1195,1420,1190.1,1419.6,1183.8z"/>
				<circle class="st0" cx="1451" cy="1131.8" r="8.7"/>
				<circle class="st0" cx="1465" cy="1078.5" r="6"/>
				<path class="st0" d="M1469.4,1024.1c-0.1-1.8,1.3-3.4,3.1-3.5c1.8-0.1,3.4,1.3,3.5,3.1c0.1,1.8-1.3,3.4-3.1,3.5
					C1471.1,1027.3,1469.5,1025.9,1469.4,1024.1z"/>
				<circle class="st0" cx="1474.3" cy="968.8" r="0.6"/>
			</g>
			<g>
				<circle class="st1" cx="1209.6" cy="550.2" r="25.1"/>
				<path class="st1" d="M1136.8,529.1c-0.6-12.3,8.8-22.8,21.1-23.5c12.3-0.6,22.8,8.8,23.5,21.1s-8.8,22.8-21.1,23.5
					C1148,550.9,1137.5,541.5,1136.8,529.1z"/>
				<path class="st1" d="M1086.9,512.7c-0.6-10.8,7.7-20.1,18.6-20.6c10.8-0.6,20.1,7.7,20.6,18.6c0.6,10.8-7.7,20.1-18.6,20.6
					C1096.7,531.8,1087.5,523.5,1086.9,512.7z"/>
				<path class="st1" d="M1035.5,502.3c-0.5-9.3,6.7-17.3,16-17.8c9.3-0.5,17.3,6.7,17.8,16c0.5,9.3-6.7,17.3-16,17.8
					C1043.9,518.8,1035.9,511.6,1035.5,502.3z"/>
				<circle class="st1" cx="997.4" cy="497.4" r="14.2"/>
				<circle class="st1" cx="942.3" cy="499.7" r="11.5"/>
				<path class="st1" d="M879.1,508.5c-0.3-4.8,3.5-8.9,8.3-9.2c4.8-0.3,8.9,3.5,9.2,8.3c0.3,4.8-3.5,8.9-8.3,9.2
					C883.4,517,879.3,513.3,879.1,508.5z"/>
				<path class="st1" d="M828.6,522.9c-0.2-3.3,2.4-6.2,5.7-6.3c3.3-0.2,6.2,2.4,6.3,5.7c0.2,3.3-2.4,6.2-5.7,6.3
					C831.6,528.8,828.8,526.2,828.6,522.9z"/>
				<path class="st1" d="M780.1,543.3c-0.1-1.8,1.3-3.4,3.1-3.5c1.8-0.1,3.4,1.3,3.5,3.1c0.1,1.8-1.3,3.4-3.1,3.5
					C781.8,546.5,780.2,545.1,780.1,543.3z"/>
				<circle class="st1" cx="735" cy="569.3" r="0.6"/>
			</g>
			<g>
				<circle class="st2" cx="504.9" cy="1007.9" r="25.1"/>
				<path class="st2" d="M488.5,1063.9c-0.6-12.3,8.8-22.8,21.1-23.5c12.3-0.6,22.8,8.8,23.5,21.1c0.6,12.3-8.8,22.8-21.1,23.5
					C499.7,1085.7,489.2,1076.2,488.5,1063.9z"/>
				<path class="st2" d="M503.4,1117.5c-0.6-10.8,7.7-20.1,18.6-20.6c10.8-0.6,20.1,7.7,20.6,18.6c0.6,10.8-7.7,20.1-18.6,20.6
					C513.2,1136.6,503.9,1128.3,503.4,1117.5z"/>
				<circle class="st2" cx="541.1" cy="1168.5" r="16.9"/>
				<path class="st2" d="M551,1218.9c-0.4-7.8,5.6-14.5,13.4-14.9c7.8-0.4,14.5,5.6,14.9,13.4c0.4,7.8-5.6,14.5-13.4,14.9
					C558.1,1232.7,551.4,1226.7,551,1218.9z"/>
				<path class="st2" d="M583.2,1265.3c-0.3-6.3,4.5-11.7,10.8-12c6.3-0.3,11.7,4.5,12,10.8c0.3,6.3-4.5,11.7-10.8,12
					C588.9,1276.5,583.5,1271.6,583.2,1265.3z"/>
				<path class="st2" d="M620.5,1308.1c-0.3-4.8,3.4-8.9,8.3-9.2c4.8-0.3,8.9,3.5,9.2,8.3c0.3,4.8-3.4,8.9-8.3,9.2
					C624.9,1316.6,620.8,1312.9,620.5,1308.1z"/>
				<path class="st2" d="M662.5,1346.7c-0.2-3.3,2.4-6.1,5.7-6.3c3.3-0.2,6.2,2.4,6.3,5.7c0.2,3.3-2.4,6.2-5.7,6.3
					C665.5,1352.5,662.6,1350,662.5,1346.7z"/>
				<path class="st2" d="M708.5,1380.6c-0.1-1.8,1.3-3.4,3.1-3.5c1.8-0.1,3.4,1.3,3.5,3.1c0.1,1.8-1.3,3.4-3.1,3.5
					C710.2,1383.8,708.6,1382.4,708.5,1380.6z"/>
				<circle class="st2" cx="758.7" cy="1409.4" r="0.6"/>
			</g>
		</g>
	</g>
	<g>
		<g>
			<g>
				<circle class="st0" cx="1210.6" cy="1452.3" r="27"/>
				<path class="st0" d="M1238.9,1422.1c1.2-13.2,12.8-23,26-21.8c13.2,1.2,23,12.8,21.8,26c-1.2,13.2-12.8,23-26,21.8
					C1247.5,1447,1237.7,1435.3,1238.9,1422.1z"/>
				<path class="st0" d="M1290.5,1388.5c1-11.6,11.3-20.2,22.9-19.2s20.2,11.3,19.2,22.9s-11.3,20.2-22.9,19.2
					S1289.4,1400.1,1290.5,1388.5z"/>
				<circle class="st0" cx="1356" cy="1351.3" r="18.2"/>
				<path class="st0" d="M1380.7,1306.1c0.7-8.4,8.1-14.6,16.5-13.9s14.6,8.1,13.9,16.5s-8.1,14.6-16.5,13.9
					C1386.2,1321.8,1379.9,1314.5,1380.7,1306.1z"/>
				<path class="st0" d="M1418.2,1258.2c0.6-6.8,6.6-11.8,13.4-11.2c6.8,0.6,11.8,6.6,11.2,13.3c-0.6,6.8-6.6,11.8-13.4,11.2
					C1422.6,1271,1417.6,1265,1418.2,1258.2z"/>
				<circle class="st0" cx="1459.4" cy="1207.5" r="9.4"/>
				<circle class="st0" cx="1482.2" cy="1152.8" r="6.5"/>
				<path class="st0" d="M1495.1,1095.6c0.2-2,1.9-3.4,3.8-3.2c2,0.2,3.4,1.9,3.2,3.8c-0.2,1.9-1.9,3.4-3.8,3.2
					C1496.4,1099.3,1495,1097.5,1495.1,1095.6z"/>
				<circle class="st0" cx="1508.5" cy="1037.5" r="0.6"/>
			</g>
			<g>
				<circle class="st1" cx="1289.4" cy="552.1" r="27"/>
				<path class="st1" d="M1215,518.8c1.2-13.2,12.8-23,26-21.8c13.2,1.2,23,12.8,21.8,26c-1.2,13.2-12.8,23-26,21.8
					C1223.7,543.7,1213.9,532,1215,518.8z"/>
				<path class="st1" d="M1164.4,493.8c1-11.6,11.3-20.2,22.9-19.2c11.6,1,20.2,11.3,19.2,22.9c-1,11.6-11.3,20.2-22.9,19.2
					C1171.9,515.6,1163.3,505.4,1164.4,493.8z"/>
				<path class="st1" d="M1111.1,475.1c0.9-10,9.7-17.4,19.7-16.5c10,0.9,17.4,9.7,16.5,19.7s-9.7,17.4-19.7,16.5
					C1117.6,493.9,1110.2,485.1,1111.1,475.1z"/>
				<circle class="st1" cx="1071.3" cy="464.2" r="15.2"/>
				<circle class="st1" cx="1012.3" cy="458.3" r="12.3"/>
				<path class="st1" d="M943.7,458.3c0.5-5.2,5-9,10.2-8.5c5.2,0.5,9,5,8.5,10.2c-0.5,5.2-5,9-10.2,8.5
					C947,468,943.2,463.4,943.7,458.3z"/>
				<path class="st1" d="M887.8,466c0.3-3.6,3.5-6.2,7-5.9c3.6,0.3,6.2,3.5,5.9,7c-0.3,3.6-3.5,6.2-7,5.9
					C890.1,472.7,887.5,469.6,887.8,466z"/>
				<path class="st1" d="M833.1,480.5c0.2-2,1.9-3.4,3.8-3.2s3.4,1.9,3.2,3.8c-0.2,2-1.9,3.4-3.8,3.2S833,482.4,833.1,480.5z"/>
				<circle class="st1" cx="781.1" cy="501.5" r="0.6"/>
			</g>
			<g>
				<circle class="st2" cx="470.5" cy="934" r="27"/>
				<path class="st2" d="M444.7,991.2c1.2-13.2,12.8-23,26-21.8c13.2,1.2,23,12.8,21.8,26c-1.2,13.2-12.8,23-26,21.8
					C453.3,1016,443.5,1004.4,444.7,991.2z"/>
				<path class="st2" d="M452.5,1050.5c1-11.6,11.3-20.2,22.9-19.2s20.2,11.3,19.2,22.9c-1,11.6-11.3,20.2-22.9,19.2
					S451.4,1062.1,452.5,1050.5z"/>
				<circle class="st2" cx="485.1" cy="1110.5" r="18.2"/>
				<path class="st2" d="M488,1165.6c0.7-8.4,8.1-14.6,16.5-13.9c8.4,0.7,14.6,8.1,13.9,16.5s-8.1,14.6-16.5,13.9
					C493.5,1181.4,487.3,1174,488,1165.6z"/>
				<path class="st2" d="M515.4,1219.8c0.6-6.8,6.6-11.8,13.3-11.2c6.8,0.6,11.8,6.6,11.2,13.3c-0.6,6.8-6.6,11.8-13.4,11.2
					C519.8,1232.6,514.8,1226.6,515.4,1219.8z"/>
				<path class="st2" d="M548.7,1271c0.5-5.2,5-9,10.2-8.5c5.2,0.5,9,5,8.5,10.2c-0.5,5.2-5,9-10.2,8.5
					C552.1,1280.7,548.3,1276.1,548.7,1271z"/>
				<path class="st2" d="M587.6,1318.3c0.3-3.6,3.5-6.2,7-5.9c3.6,0.3,6.2,3.4,5.9,7c-0.3,3.6-3.4,6.2-7,5.9
					C589.9,1325,587.3,1321.9,587.6,1318.3z"/>
				<path class="st2" d="M631.6,1361.4c0.2-1.9,1.9-3.4,3.8-3.2c2,0.2,3.4,1.9,3.2,3.8c-0.2,2-1.9,3.4-3.8,3.2
					C632.8,1365,631.4,1363.3,631.6,1361.4z"/>
				<circle class="st2" cx="680.7" cy="1399.5" r="0.6"/>
			</g>
		</g>
	</g>
	<g>
		<g>
			<g>
				<circle class="st0" cx="1155.5" cy="1512.8" r="29"/>
				<path class="st0" d="M1190.1,1484.9c3.2-13.9,17.1-22.6,31-19.4c13.9,3.2,22.6,17.1,19.4,31c-3.2,13.9-17.1,22.6-31,19.4
					C1195.5,1512.7,1186.8,1498.8,1190.1,1484.9z"/>
				<path class="st0" d="M1250,1456.9c2.8-12.2,15-19.8,27.2-17s19.8,15,17,27.2c-2.8,12.2-15,19.8-27.2,17
					C1254.8,1481.3,1247.2,1469.1,1250,1456.9z"/>
				<circle class="st0" cx="1325.4" cy="1427" r="19.5"/>
				<path class="st0" d="M1358.4,1382.6c2-8.8,10.8-14.3,19.7-12.3c8.8,2,14.3,10.8,12.3,19.7s-10.8,14.3-19.7,12.3
					C1361.9,1400.2,1356.4,1391.4,1358.4,1382.6z"/>
				<path class="st0" d="M1405.6,1337.2c1.6-7.1,8.8-11.6,15.9-9.9c7.1,1.6,11.6,8.8,9.9,15.9c-1.6,7.1-8.8,11.6-15.9,9.9
					C1408.4,1351.5,1403.9,1344.4,1405.6,1337.2z"/>
				<circle class="st0" cx="1457" cy="1289.5" r="10.1"/>
				<circle class="st0" cx="1489.5" cy="1234.6" r="7"/>
				<path class="st0" d="M1511.8,1175.6c0.5-2.1,2.5-3.3,4.6-2.9s3.3,2.5,2.9,4.6c-0.5,2.1-2.5,3.3-4.6,2.9
					C1512.6,1179.7,1511.3,1177.6,1511.8,1175.6z"/>
				<circle class="st0" cx="1534.8" cy="1115.7" r="0.7"/>
			</g>
			<g>
				<circle class="st1" cx="1374" cy="566.1" r="29"/>
				<path class="st1" d="M1299.9,519.5c3.2-13.9,17.1-22.6,31-19.4c13.9,3.2,22.6,17.1,19.4,31c-3.2,13.9-17.1,22.6-31,19.4
					C1305.3,547.3,1296.7,533.4,1299.9,519.5z"/>
				<path class="st1" d="M1249.6,485.3c2.8-12.2,15-19.8,27.2-17c12.2,2.8,19.8,15,17,27.2c-2.8,12.2-15,19.8-27.2,17
					C1254.4,509.7,1246.8,497.5,1249.6,485.3z"/>
				<path class="st1" d="M1195.8,457.4c2.4-10.5,12.9-17.1,23.4-14.6c10.5,2.4,17.1,12.9,14.6,23.4c-2.4,10.5-12.9,17.1-23.4,14.6
					C1199.9,478.4,1193.3,467.9,1195.8,457.4z"/>
				<circle class="st1" cx="1155" cy="439.8" r="16.4"/>
				<circle class="st1" cx="1093" cy="424.7" r="13.3"/>
				<path class="st1" d="M1020,414.4c1.3-5.4,6.7-8.8,12.1-7.6c5.4,1.3,8.8,6.7,7.6,12.1c-1.3,5.4-6.7,8.8-12.1,7.6
					C1022.1,425.3,1018.7,419.9,1020,414.4z"/>
				<path class="st1" d="M959.3,414.3c0.9-3.7,4.6-6.1,8.3-5.2c3.7,0.9,6.1,4.6,5.2,8.3c-0.9,3.7-4.6,6.1-8.3,5.2
					C960.8,421.8,958.4,418.1,959.3,414.3z"/>
				<path class="st1" d="M898.9,421.5c0.5-2.1,2.5-3.3,4.6-2.9s3.3,2.5,2.9,4.6s-2.5,3.3-4.6,2.9
					C899.7,425.6,898.5,423.6,898.9,421.5z"/>
				<circle class="st1" cx="840.4" cy="436.1" r="0.7"/>
			</g>
			<g>
				<circle class="st2" cx="444.9" cy="850.2" r="29"/>
				<path class="st2" d="M408.9,907.2c3.2-13.9,17.1-22.6,31-19.4c13.9,3.2,22.6,17.1,19.4,31s-17.1,22.6-31,19.4
					C414.4,935,405.7,921.1,408.9,907.2z"/>
				<path class="st2" d="M408.3,971.5c2.8-12.2,15-19.8,27.2-17c12.2,2.8,19.8,15,17,27.2c-2.8,12.2-15,19.8-27.2,17
					C413.1,995.9,405.5,983.7,408.3,971.5z"/>
				<circle class="st2" cx="434" cy="1040.3" r="19.5"/>
				<path class="st2" d="M428.9,1099.4c2-8.8,10.8-14.3,19.7-12.3c8.8,2,14.3,10.8,12.3,19.7c-2,8.8-10.8,14.3-19.7,12.3
					C432.4,1117,426.9,1108.2,428.9,1099.4z"/>
				<path class="st2" d="M450,1161.3c1.6-7.1,8.8-11.6,15.9-9.9c7.1,1.6,11.6,8.8,9.9,15.9c-1.6,7.1-8.8,11.6-15.9,9.9
					C452.8,1175.5,448.3,1168.4,450,1161.3z"/>
				<path class="st2" d="M477.8,1220.7c1.3-5.4,6.7-8.8,12.1-7.6s8.8,6.7,7.6,12.1c-1.3,5.4-6.7,8.8-12.1,7.6
					C479.9,1231.6,476.5,1226.1,477.8,1220.7z"/>
				<path class="st2" d="M512.1,1277c0.9-3.7,4.6-6.1,8.3-5.2s6.1,4.6,5.2,8.3c-0.9,3.7-4.6,6.1-8.3,5.2
					C513.6,1284.4,511.2,1280.7,512.1,1277z"/>
				<path class="st2" d="M552.5,1329.3c0.5-2.1,2.5-3.3,4.6-2.9c2.1,0.5,3.3,2.5,2.9,4.6c-0.5,2.1-2.5,3.3-4.6,2.9
					C553.3,1333.4,552,1331.4,552.5,1329.3z"/>
				<circle class="st2" cx="599.1" cy="1377.3" r="0.7"/>
			</g>
		</g>
	</g>
	<g>
		<g>
			<g>
				<circle class="st0" cx="1087.7" cy="1569" r="31.2"/>
				<path class="st0" d="M1128.7,1544.5c5.5-14.3,21.6-21.5,35.9-16c14.3,5.5,21.5,21.6,16,35.9c-5.5,14.3-21.6,21.5-35.9,16
					C1130.3,1574.9,1123.2,1558.8,1128.7,1544.5z"/>
				<path class="st0" d="M1196.7,1523.6c4.8-12.6,18.9-18.9,31.5-14c12.6,4.8,18.9,18.9,14,31.5c-4.8,12.6-18.9,18.9-31.5,14
					C1198.2,1550.3,1191.9,1536.2,1196.7,1523.6z"/>
				<circle class="st0" cx="1281.5" cy="1503.1" r="21"/>
				<path class="st0" d="M1323.3,1460.7c3.5-9.1,13.7-13.6,22.8-10.1c9.1,3.5,13.6,13.7,10.1,22.8c-3.5,9.1-13.7,13.6-22.8,10.1
					C1324.3,1480,1319.8,1469.8,1323.3,1460.7z"/>
				<path class="st0" d="M1380.3,1419.5c2.8-7.3,11.1-11,18.4-8.2c7.3,2.8,11,11.1,8.2,18.4c-2.8,7.3-11.1,11-18.4,8.2
					C1381.1,1435.1,1377.4,1426.8,1380.3,1419.5z"/>
				<circle class="st0" cx="1442.2" cy="1376.3" r="10.9"/>
				<circle class="st0" cx="1485" cy="1322.8" r="7.5"/>
				<path class="st0" d="M1517.6,1263.3c0.8-2.1,3.2-3.2,5.3-2.4c2.1,0.8,3.2,3.2,2.4,5.3c-0.8,2.1-3.2,3.2-5.3,2.4
					C1517.8,1267.7,1516.8,1265.4,1517.6,1263.3z"/>
				<circle class="st0" cx="1551" cy="1202.9" r="0.7"/>
			</g>
			<g>
				<circle class="st1" cx="1462.1" cy="593.7" r="31.2"/>
				<path class="st1" d="M1390.1,532.9c5.5-14.3,21.6-21.5,35.9-16c14.3,5.5,21.5,21.6,16,35.9c-5.5,14.3-21.6,21.5-35.9,16
					C1391.8,563.3,1384.6,547.3,1390.1,532.9z"/>
				<path class="st1" d="M1341.7,489c4.8-12.6,18.9-18.9,31.5-14c12.6,4.8,18.9,18.9,14,31.5c-4.8,12.6-18.9,18.9-31.5,14
					C1343.2,515.7,1336.9,501.6,1341.7,489z"/>
				<path class="st1" d="M1288.5,451.2c4.2-10.8,16.3-16.2,27.2-12.1c10.8,4.2,16.2,16.3,12.1,27.2c-4.2,10.8-16.3,16.2-27.2,12.1
					C1289.8,474.2,1284.4,462,1288.5,451.2z"/>
				<circle class="st1" cx="1247.7" cy="426.4" r="17.6"/>
				<circle class="st1" cx="1184" cy="401.1" r="14.2"/>
				<path class="st1" d="M1107.8,379.2c2.2-5.6,8.4-8.4,14-6.3c5.6,2.2,8.4,8.4,6.2,14c-2.2,5.6-8.4,8.4-14,6.2
					C1108.4,391.1,1105.6,384.8,1107.8,379.2z"/>
				<path class="st1" d="M1043.2,370c1.5-3.9,5.8-5.8,9.7-4.3c3.9,1.5,5.8,5.8,4.3,9.7c-1.5,3.9-5.8,5.8-9.7,4.3
					C1043.6,378.2,1041.7,373.9,1043.2,370z"/>
				<path class="st1" d="M977.8,368.6c0.8-2.1,3.2-3.2,5.3-2.4c2.1,0.8,3.2,3.2,2.4,5.3s-3.2,3.2-5.3,2.4
					C978.1,373.1,977,370.8,977.8,368.6z"/>
				<circle class="st1" cx="913.3" cy="375.4" r="0.7"/>
			</g>
			<g>
				<circle class="st2" cx="430.2" cy="757.1" r="31.2"/>
				<path class="st2" d="M383.4,812.4c5.5-14.3,21.6-21.5,35.9-16c14.3,5.5,21.5,21.6,16,35.9c-5.5,14.3-21.6,21.5-35.9,16
					C385,842.8,377.9,826.8,383.4,812.4z"/>
				<path class="st2" d="M373.1,880.8c4.8-12.6,18.9-18.9,31.5-14c12.6,4.8,18.9,18.9,14,31.5c-4.8,12.6-18.9,18.9-31.5,14
					C374.6,907.5,368.3,893.4,373.1,880.8z"/>
				<circle class="st2" cx="390.2" cy="957.9" r="21"/>
				<path class="st2" d="M375.9,1020.1c3.5-9.1,13.7-13.6,22.8-10.1c9.1,3.5,13.6,13.7,10.1,22.8c-3.5,9.1-13.7,13.6-22.8,10.1
					C377,1039.4,372.4,1029.2,375.9,1020.1z"/>
				<path class="st2" d="M389.1,1089.1c2.8-7.3,11.1-11,18.4-8.2c7.3,2.8,11,11.1,8.2,18.4c-2.8,7.3-11.1,11-18.4,8.2
					C389.9,1104.7,386.2,1096.4,389.1,1089.1z"/>
				<path class="st2" d="M409.8,1156.6c2.2-5.6,8.4-8.4,14-6.3c5.6,2.2,8.4,8.4,6.2,14c-2.2,5.6-8.4,8.4-14,6.2
					C410.5,1168.4,407.7,1162.2,409.8,1156.6z"/>
				<path class="st2" d="M437.9,1221.6c1.5-3.9,5.8-5.8,9.7-4.3c3.9,1.5,5.8,5.8,4.3,9.7c-1.5,3.9-5.8,5.8-9.7,4.3
					C438.4,1229.8,436.4,1225.5,437.9,1221.6z"/>
				<path class="st2" d="M473.1,1283.4c0.8-2.1,3.2-3.2,5.3-2.4c2.1,0.8,3.2,3.2,2.4,5.3c-0.8,2.1-3.2,3.2-5.3,2.4
					C473.3,1287.9,472.3,1285.5,473.1,1283.4z"/>
				<circle class="st2" cx="515.5" cy="1341.5" r="0.7"/>
			</g>
		</g>
	</g>
	<g>
		<g>
			<g>
				<circle class="st0" cx="1007.1" cy="1618.7" r="33.5"/>
				<path class="st0" d="M1054.4,1598.7c8-14.4,26.2-19.6,40.6-11.6c14.4,8,19.6,26.2,11.6,40.6c-8,14.4-26.2,19.6-40.6,11.6
					C1051.6,1631.3,1046.4,1613.2,1054.4,1598.7z"/>
				<path class="st0" d="M1130,1586.7c7-12.7,23-17.3,35.7-10.2c12.7,7,17.3,23,10.2,35.7c-7,12.7-23,17.3-35.7,10.2
					C1127.6,1615.3,1123,1599.4,1130,1586.7z"/>
				<circle class="st0" cx="1223.3" cy="1577.5" r="22.6"/>
				<path class="st0" d="M1274.2,1538.6c5.1-9.2,16.6-12.5,25.8-7.4s12.5,16.6,7.4,25.8c-5.1,9.2-16.6,12.5-25.8,7.4
					C1272.4,1559.3,1269.1,1547.8,1274.2,1538.6z"/>
				<path class="st0" d="M1341,1503.3c4.1-7.4,13.4-10.1,20.8-6c7.4,4.1,10.1,13.4,6,20.8c-4.1,7.4-13.4,10.1-20.8,6
					C1339.6,1520,1336.9,1510.7,1341,1503.3z"/>
				<circle class="st0" cx="1413.4" cy="1466.6" r="11.7"/>
				<circle class="st0" cx="1467" cy="1416" r="8"/>
				<path class="st0" d="M1510.6,1357.5c1.2-2.1,3.9-2.9,6-1.7c2.1,1.2,2.9,3.9,1.7,6c-1.2,2.1-3.9,2.9-6,1.7
					S1509.4,1359.6,1510.6,1357.5z"/>
				<circle class="st0" cx="1555.2" cy="1298.2" r="0.8"/>
			</g>
			<g>
				<circle class="st1" cx="1551.7" cy="636.2" r="33.5"/>
				<path class="st1" d="M1484.2,560.8c8-14.4,26.2-19.6,40.6-11.6c14.4,8,19.6,26.2,11.6,40.6c-8,14.4-26.2,19.6-40.6,11.6
					C1481.4,593.4,1476.2,575.2,1484.2,560.8z"/>
				<path class="st1" d="M1439.2,506.7c7-12.7,23-17.3,35.7-10.2c12.7,7,17.3,23,10.2,35.7c-7,12.7-23,17.3-35.7,10.2
					C1436.8,535.3,1432.2,519.4,1439.2,506.7z"/>
				<path class="st1" d="M1388.2,458.5c6.1-10.9,19.8-14.9,30.7-8.8c10.9,6.1,14.9,19.8,8.8,30.7c-6.1,10.9-19.8,14.9-30.7,8.8
					C1386.1,483.2,1382.2,469.4,1388.2,458.5z"/>
				<circle class="st1" cx="1348.5" cy="426" r="19"/>
				<circle class="st1" cx="1284.5" cy="389.5" r="15.3"/>
				<path class="st1" d="M1206.5,354.8c3.1-5.6,10.2-7.7,15.9-4.6c5.6,3.1,7.7,10.2,4.6,15.9c-3.1,5.6-10.2,7.7-15.9,4.6
					C1205.4,367.5,1203.4,360.4,1206.5,354.8z"/>
				<path class="st1" d="M1139.1,335.3c2.2-3.9,7.1-5.3,10.9-3.1c3.9,2.2,5.3,7.1,3.1,10.9c-2.2,3.9-7.1,5.3-10.9,3.1
					C1138.4,344.1,1137,339.2,1139.1,335.3z"/>
				<path class="st1" d="M1069.8,324.1c1.2-2.1,3.9-2.9,6-1.7c2.1,1.2,2.9,3.9,1.7,6s-3.9,2.9-6,1.7
					C1069.4,328.9,1068.6,326.2,1069.8,324.1z"/>
				<circle class="st1" cx="1000.1" cy="321.6" r="0.8"/>
			</g>
			<g>
				<circle class="st2" cx="428.5" cy="655.8" r="33.5"/>
				<path class="st2" d="M370.4,707.7c8-14.4,26.2-19.6,40.6-11.6c14.4,8,19.6,26.2,11.6,40.6c-8,14.4-26.2,19.6-40.6,11.6
					C367.6,740.3,362.4,722.1,370.4,707.7z"/>
				<path class="st2" d="M349.2,779c7-12.7,23-17.3,35.7-10.2s17.3,23,10.2,35.7s-23,17.3-35.7,10.2
					C346.7,807.7,342.2,791.7,349.2,779z"/>
				<circle class="st2" cx="355.9" cy="863.6" r="22.6"/>
				<path class="st2" d="M331.4,927.7c5.1-9.2,16.6-12.5,25.8-7.4c9.2,5.1,12.5,16.6,7.4,25.8c-5.1,9.2-16.6,12.5-25.8,7.4
					C329.6,948.4,326.3,936.9,331.4,927.7z"/>
				<path class="st2" d="M335,1003.2c4.1-7.4,13.4-10.1,20.8-6c7.4,4.1,10.1,13.4,6,20.8c-4.1,7.4-13.4,10.1-20.8,6
					C333.6,1019.9,330.9,1010.6,335,1003.2z"/>
				<path class="st2" d="M347,1078.1c3.1-5.6,10.2-7.7,15.9-4.6c5.6,3.1,7.7,10.2,4.6,15.9c-3.1,5.6-10.2,7.7-15.9,4.6
					C345.9,1090.8,343.9,1083.7,347,1078.1z"/>
				<path class="st2" d="M367.2,1151.5c2.2-3.9,7.1-5.3,10.9-3.1s5.3,7,3.1,10.9c-2.2,3.9-7.1,5.3-10.9,3.1
					C366.5,1160.3,365.1,1155.4,367.2,1151.5z"/>
				<path class="st2" d="M395.4,1222.6c1.2-2.1,3.9-2.9,6-1.7c2.1,1.2,2.9,3.9,1.7,6c-1.2,2.1-3.9,2.9-6,1.7
					C395,1227.4,394.2,1224.8,395.4,1222.6z"/>
				<circle class="st2" cx="431.9" cy="1290.8" r="0.8"/>
			</g>
		</g>
	</g>
	<g>
		<g>
			<g>
				<circle class="st0" cx="913.8" cy="1659.6" r="36"/>
				<path class="st0" d="M967.2,1645.4c10.7-14.2,30.8-17,45-6.3c14.2,10.7,17,30.8,6.3,45c-10.7,14.2-30.8,17-45,6.3
					C959.4,1679.7,956.6,1659.5,967.2,1645.4z"/>
				<path class="st0" d="M1049.5,1643.9c9.4-12.4,27.1-14.9,39.5-5.6c12.4,9.4,14.9,27.1,5.6,39.5c-9.4,12.4-27.1,14.9-39.5,5.6
					C1042.6,1674,1040.1,1656.3,1049.5,1643.9z"/>
				<circle class="st0" cx="1150.2" cy="1648.1" r="24.3"/>
				<path class="st0" d="M1210.2,1614.3c6.8-9,19.6-10.8,28.5-4c9,6.8,10.8,19.6,4,28.5c-6.8,9-19.6,10.8-28.5,4
					C1205.2,1636.1,1203.4,1623.3,1210.2,1614.3z"/>
				<path class="st0" d="M1286.7,1586.6c5.5-7.3,15.8-8.7,23.1-3.2c7.3,5.5,8.7,15.8,3.2,23.1c-5.5,7.3-15.8,8.7-23.1,3.2
					C1282.7,1604.2,1281.2,1593.9,1286.7,1586.6z"/>
				<circle class="st0" cx="1369.3" cy="1558.4" r="12.6"/>
				<circle class="st0" cx="1433.9" cy="1512.5" r="8.7"/>
				<path class="st0" d="M1489.1,1456.8c1.6-2.1,4.5-2.5,6.6-0.9c2.1,1.6,2.5,4.5,0.9,6.6c-1.6,2.1-4.5,2.5-6.6,0.9
					C1487.9,1461.8,1487.5,1458.8,1489.1,1456.8z"/>
				<circle class="st0" cx="1545.5" cy="1400.3" r="0.8"/>
			</g>
			<g>
				<circle class="st1" cx="1640.8" cy="694.9" r="36"/>
				<path class="st1" d="M1580.2,604.4c10.7-14.2,30.8-17,45-6.3c14.2,10.7,17,30.8,6.3,45c-10.7,14.2-30.8,17-45,6.3
					C1572.3,638.8,1569.5,618.6,1580.2,604.4z"/>
				<path class="st1" d="M1540.4,540.2c9.4-12.4,27.1-14.9,39.5-5.6c12.4,9.4,14.9,27.1,5.6,39.5c-9.4,12.4-27.1,14.9-39.5,5.6
					C1533.5,570.3,1531,552.6,1540.4,540.2z"/>
				<path class="st1" d="M1493.3,481.2c8.1-10.7,23.3-12.9,34-4.8c10.7,8.1,12.9,23.3,4.8,34c-8.1,10.7-23.3,12.9-34,4.8
					C1487.4,507.2,1485.2,491.9,1493.3,481.2z"/>
				<circle class="st1" cx="1455.9" cy="440.7" r="20.4"/>
				<circle class="st1" cx="1393.1" cy="392.2" r="16.5"/>
				<path class="st1" d="M1315.4,343.6c4.2-5.5,12.1-6.6,17.6-2.5c5.5,4.2,6.6,12.1,2.5,17.6c-4.2,5.5-12.1,6.6-17.6,2.5
					C1312.3,357,1311.2,349.1,1315.4,343.6z"/>
				<path class="st1" d="M1246.5,312.8c2.9-3.8,8.3-4.6,12.1-1.7c3.8,2.9,4.6,8.3,1.7,12.1c-2.9,3.8-8.3,4.6-12.1,1.7
					C1244.4,322,1243.6,316.6,1246.5,312.8z"/>
				<path class="st1" d="M1174.3,290.5c1.6-2.1,4.5-2.5,6.6-0.9c2.1,1.6,2.5,4.5,0.9,6.6c-1.6,2.1-4.5,2.5-6.6,0.9
					C1173.2,295.5,1172.7,292.5,1174.3,290.5z"/>
				<circle class="st1" cx="1100.5" cy="277.4" r="0.8"/>
			</g>
			<g>
				<circle class="st2" cx="441.9" cy="547.7" r="36"/>
				<path class="st2" d="M372.2,594.2c10.7-14.2,30.8-17,45-6.3c14.2,10.7,17,30.8,6.3,45s-30.8,17-45,6.3
					C364.3,628.5,361.5,608.4,372.2,594.2z"/>
				<path class="st2" d="M339,667c9.4-12.4,27.1-14.9,39.5-5.6c12.4,9.4,14.9,27.1,5.6,39.5c-9.4,12.4-27.1,14.9-39.5,5.6
					C332.1,697.1,329.6,679.4,339,667z"/>
				<circle class="st2" cx="333.4" cy="758.1" r="24.3"/>
				<path class="st2" d="M297.7,822.7c6.8-9,19.6-10.8,28.5-4c9,6.8,10.8,19.6,4,28.5s-19.6,10.8-28.5,4
					C292.8,844.4,291,831.6,297.7,822.7z"/>
				<path class="st2" d="M290.3,903.5c5.5-7.3,15.8-8.7,23.1-3.2c7.3,5.5,8.7,15.8,3.2,23.1s-15.8,8.7-23.1,3.2
					C286.3,921.1,284.9,910.8,290.3,903.5z"/>
				<path class="st2" d="M291.9,985.1c4.2-5.5,12.1-6.6,17.6-2.5c5.5,4.2,6.6,12.1,2.5,17.6c-4.2,5.5-12.1,6.6-17.6,2.5
					S287.7,990.7,291.9,985.1z"/>
				<path class="st2" d="M302.4,1066.4c2.9-3.8,8.3-4.6,12.1-1.7s4.6,8.3,1.7,12.1c-2.9,3.8-8.3,4.6-12.1,1.7
					C300.3,1075.6,299.6,1070.2,302.4,1066.4z"/>
				<path class="st2" d="M321.8,1146.3c1.6-2.1,4.5-2.5,6.6-0.9c2.1,1.6,2.5,4.5,0.9,6.6c-1.6,2.1-4.5,2.5-6.6,0.9
					C320.6,1151.3,320.2,1148.4,321.8,1146.3z"/>
				<circle class="st2" cx="350.5" cy="1224.4" r="0.8"/>
			</g>
		</g>
	</g>
	<g>
		<g>
			<g>
				<circle class="st0" cx="808.4" cy="1689.2" r="38.7"/>
				<path class="st0" d="M867.4,1682c13.5-13.5,35.4-13.5,48.8,0c13.5,13.5,13.5,35.4,0,48.8c-13.5,13.5-35.4,13.5-48.8,0
					C853.9,1717.4,853.9,1695.5,867.4,1682z"/>
				<path class="st0" d="M955.3,1692.7c11.8-11.8,31-11.8,42.9,0c11.8,11.8,11.8,31.1,0,42.9c-11.8,11.8-31.1,11.8-42.9,0
					S943.4,1704.5,955.3,1692.7z"/>
				<circle class="st0" cx="1061.9" cy="1712.2" r="26.1"/>
				<path class="st0" d="M1130.8,1685.3c8.6-8.6,22.4-8.6,31,0c8.6,8.6,8.6,22.4,0,31s-22.4,8.6-31,0
					C1122.2,1707.7,1122.2,1693.8,1130.8,1685.3z"/>
				<path class="st0" d="M1216.4,1667.2c6.9-6.9,18.1-6.9,25.1,0c6.9,6.9,6.9,18.1,0,25.1c-6.9,6.9-18.1,6.9-25.1,0
					C1209.4,1685.4,1209.4,1674.2,1216.4,1667.2z"/>
				<circle class="st0" cx="1308.5" cy="1649.5" r="13.5"/>
				<circle class="st0" cx="1384.2" cy="1610.4" r="9.3"/>
				<path class="st0" d="M1451.3,1559.3c2-2,5.2-2,7.2,0s2,5.2,0,7.2c-2,2-5.2,2-7.2,0S1449.3,1561.2,1451.3,1559.3z"/>
				<circle class="st0" cx="1519.8" cy="1507.6" r="0.9"/>
			</g>
			<g>
				<circle class="st1" cx="1726.9" cy="770.7" r="38.7"/>
				<path class="st1" d="M1675.8,665.3c13.5-13.5,35.4-13.5,48.8,0c13.5,13.5,13.5,35.4,0,48.8c-13.5,13.5-35.4,13.5-48.8,0
					C1662.3,700.7,1662.3,678.8,1675.8,665.3z"/>
				<path class="st1" d="M1643.1,590.9c11.8-11.8,31.1-11.8,42.9,0c11.8,11.8,11.8,31.1,0,42.9c-11.8,11.8-31.1,11.8-42.9,0
					C1631.3,622,1631.3,602.8,1643.1,590.9z"/>
				<path class="st1" d="M1601.8,521.1c10.2-10.2,26.7-10.2,36.9,0c10.2,10.2,10.2,26.7,0,36.9c-10.2,10.2-26.7,10.2-36.9,0
					C1591.6,547.9,1591.6,531.3,1601.8,521.1z"/>
				<circle class="st1" cx="1568" cy="472.3" r="21.9"/>
				<circle class="st1" cx="1508.5" cy="411.4" r="17.7"/>
				<path class="st1" d="M1432.9,347.9c5.3-5.3,13.8-5.3,19.1,0c5.3,5.3,5.3,13.8,0,19.1c-5.3,5.3-13.8,5.3-19.1,0
					C1427.6,361.8,1427.6,353.2,1432.9,347.9z"/>
				<path class="st1" d="M1364.2,304.8c3.6-3.6,9.5-3.6,13.2,0c3.6,3.6,3.6,9.5,0,13.2c-3.6,3.6-9.5,3.6-13.2,0
					C1360.6,314.4,1360.6,308.5,1364.2,304.8z"/>
				<path class="st1" d="M1290.7,270.3c2-2,5.2-2,7.2,0c2,2,2,5.2,0,7.2c-2,2-5.2,2-7.2,0C1288.7,275.5,1288.7,272.3,1290.7,270.3z"
					/>
				<circle class="st1" cx="1214" cy="245.3" r="0.9"/>
			</g>
			<g>
				<circle class="st2" cx="472.3" cy="434.6" r="38.7"/>
				<path class="st2" d="M391.1,473.7c13.5-13.5,35.4-13.5,48.8,0c13.5,13.5,13.5,35.4,0,48.8c-13.5,13.5-35.4,13.5-48.8,0
					C377.6,509,377.6,487.2,391.1,473.7z"/>
				<path class="st2" d="M344.8,546.2c11.8-11.8,31.1-11.8,42.9,0s11.8,31.1,0,42.9s-31.1,11.8-42.9,0S333,558.1,344.8,546.2z"/>
				<circle class="st2" cx="325.3" cy="642.4" r="26.1"/>
				<path class="st2" d="M277.7,705.8c8.6-8.6,22.4-8.6,31,0c8.6,8.6,8.6,22.4,0,31c-8.6,8.6-22.4,8.6-31,0
					C269.1,728.2,269.1,714.3,277.7,705.8z"/>
				<path class="st2" d="M257.7,790.8c6.9-6.9,18.1-6.9,25.1,0c6.9,6.9,6.9,18.1,0,25.1s-18.1,6.9-25.1,0
					C250.8,808.9,250.8,797.7,257.7,790.8z"/>
				<path class="st2" d="M247.1,877.9c5.3-5.3,13.8-5.3,19.1,0c5.3,5.3,5.3,13.8,0,19.1c-5.3,5.3-13.8,5.3-19.1,0
					C241.9,891.7,241.9,883.2,247.1,877.9z"/>
				<path class="st2" d="M246.2,966c3.6-3.6,9.5-3.6,13.2,0c3.6,3.6,3.6,9.5,0,13.2c-3.6,3.6-9.5,3.6-13.2,0
					C242.5,975.5,242.5,969.6,246.2,966z"/>
				<path class="st2" d="M254.8,1054c2-2,5.2-2,7.2,0s2,5.2,0,7.2c-2,2-5.2,2-7.2,0S252.8,1056,254.8,1054z"/>
				<circle class="st2" cx="273.7" cy="1141.4" r="0.9"/>
			</g>
		</g>
	</g>
</g>
</svg>
