<?xml version="1.0" ?><svg data-name="Слой 1" id="Слой_1" viewBox="0 0 32 32" xmlns="http://www.w3.org/2000/svg"><path d="M27.4989,19.7214a.4689.4689,0,0,0-.0273-.09c-.0029-.0063-.0024-.0137-.0059-.02l-4.083-7.6777a.4886.4886,0,0,0-.0424-.0518.5167.5167,0,0,0-.0635-.0776.4629.4629,0,0,0-.0781-.0523.3325.3325,0,0,0-.18-.0625.41.41,0,0,0-.0645-.0132H10.9267c-.0073,0-.0132.0039-.0205.0044a.4582.4582,0,0,0-.0938.0186.4651.4651,0,0,0-.0937.0278c-.0069.0034-.0137.0025-.0205.0064a.4059.4059,0,0,0-.0523.0429.4564.4564,0,0,0-.0766.063.87.87,0,0,0-.0948.1573.4533.4533,0,0,0-.0205.103.4323.4323,0,0,0-.0127.0625c0,.0068.0039.0127.0039.0195a.49.49,0,0,0,.02.0977.4689.4689,0,0,0,.0273.09c.0029.0063.0025.0137.0059.02l4.083,7.6778c.0063.0117.019.0166.0259.0273a.4721.4721,0,0,0,.1289.1353.49.49,0,0,0,.0517.0346.4756.4756,0,0,0,.2188.06l.0034,0H27.037l.0049-.001a.48.48,0,0,0,.2051-.0513c.0059-.0029.0127-.0014.0185-.0044a.4616.4616,0,0,0,.0528-.0434.5013.5013,0,0,0,.0762-.063.4712.4712,0,0,0,.0527-.0781.4994.4994,0,0,0,.042-.0791.4541.4541,0,0,0,.02-.1031.44.44,0,0,0,.0127-.062c0-.0073-.0039-.0132-.0039-.02A.4919.4919,0,0,0,27.4989,19.7214Zm-4.1425-.3681L21.831,16.4856h2.873l1.5249,2.8677Zm-4.083,0L17.748,16.4856h2.9834l1.5249,2.8677Zm-3.9717,0-1.5254-2.8677h2.8721l1.5249,2.8677Zm-.6953-6.7066,1.5254,2.8677H13.26l-1.5249-2.8677Zm4.083,0,1.5254,2.8677H17.2314l-1.5249-2.8677Zm3.9726,0,1.5254,2.8677h-2.873L19.79,12.6467Z"/><path d="M25.3739,9.842a.4555.4555,0,0,0-.0434-.0532.488.488,0,0,0-.0615-.0757.9705.9705,0,0,0-.1568-.0952.4965.4965,0,0,0-.1045-.021.4435.4435,0,0,0-.0625-.0127H6.3671L6.36,9.5857l-.0049-.0015c-.0078.0005-.0142.0064-.022.0069a.4723.4723,0,0,0-.2016.0625.5116.5116,0,0,0-.0513.0346.4815.4815,0,0,0-.1348.1543c-.0044.0078-.0132.0113-.0171.02l-5.62,11.86a.4852.4852,0,0,0,.4385.6934H2.5546a.4854.4854,0,0,0,.4395-.2783l3.3945-7.2139,3.7637,7.231a.4851.4851,0,0,0,.4306.2612h20.67a.4856.4856,0,0,0,.4287-.7134ZM10.8779,21.4446l-4.08-7.84a.512.512,0,0,0-.44-.2612.4857.4857,0,0,0-.43.2788L2.246,21.4446H1.5146l4.8779-10.293,5.4736,10.293Zm2.0888,0L7.1752,10.5559h17.478l5.7911,10.8887Z"/></svg>